<?xml version="1.0" encoding="UTF-8"?>
<svg version="1.1" xmlns="http://www.w3.org/2000/svg" width="200" height="202">
<path d="M0 0 C66 0 132 0 200 0 C200 66.66 200 133.32 200 202 C134 202 68 202 0 202 C0 135.34 0 68.68 0 0 Z " fill="#F8D5E5" transform="translate(0,0)"/>
<path d="M0 0 C2.56695636 0.39491636 4.67123994 0.83561997 7 2 C9.08060425 2.1235718 11.16576333 2.17560367 13.25 2.1875 C14.92835937 2.20876953 14.92835937 2.20876953 16.640625 2.23046875 C20.07764584 1.99467313 22.79530445 1.22846663 26 0 C28.32590854 3.63423209 28.16265833 6.77088331 28 11 C31.31460705 9.29107501 31.31460705 9.29107501 31.6875 5.875 C31.790625 4.92625 31.89375 3.9775 32 3 C32.99 3.33 33.98 3.66 35 4 C34.6875 7.375 34.6875 7.375 34 11 C33.01 11.66 32.02 12.32 31 13 C30.33241215 16.37248616 30.33241215 16.37248616 31 20 C33.1020938 22.52140971 33.1020938 22.52140971 36 25 C37.27853188 26.51808838 38.52712159 28.06173275 39.75 29.625 C40.34296875 30.38039063 40.9359375 31.13578125 41.546875 31.9140625 C45.36592645 37.39624926 44.76854676 44.62599749 44 51 C42.43850814 54.19024799 40.45840404 56.47153782 38 59 C37.34 59.99 36.68 60.98 36 62 C39.3 62.33 42.6 62.66 46 63 C46.33 64.32 46.66 65.64 47 67 C44.28317033 70.65073987 42.67370183 71.8564242 38.1875 72.8125 C37.135625 72.874375 36.08375 72.93625 35 73 C35.495 74.051875 35.495 74.051875 36 75.125 C37 78 37 78 37 84 C21.82 84 6.64 84 -9 84 C-9 76 -9 76 -7 73 C-8.0725 72.896875 -9.145 72.79375 -10.25 72.6875 C-15.58007117 71.71032028 -15.58007117 71.71032028 -18 69 C-18.3125 66.375 -18.3125 66.375 -18 64 C-16.33657163 62.33657163 -14.2174291 62.63951903 -11.9375 62.4375 C-11.01839844 62.35371094 -10.09929688 62.26992187 -9.15234375 62.18359375 C-8.44207031 62.12300781 -7.73179688 62.06242187 -7 62 C-7 61.34 -7 60.68 -7 60 C-7.7425 59.773125 -8.485 59.54625 -9.25 59.3125 C-12.55765809 57.733845 -13.94858409 56.00385901 -16 53 C-18.04832321 46.85503038 -18.35231809 39.28954886 -15.87109375 33.25390625 C-13.55562963 29.6688665 -11.11749779 26.96224414 -7.6875 24.4375 C-3.95151458 21.0490481 -4.32307927 18.92695888 -4 14 C-3.34 13.34 -2.68 12.68 -2 12 C-1.57446839 9.37023476 -1.57446839 9.37023476 -1.4375 6.4375 C-1.09722222 1.09722222 -1.09722222 1.09722222 0 0 Z " fill="#C3B3DD" transform="translate(42,61)"/>
<path d="M0 0 C1.00799652 -0.0159874 2.01599304 -0.03197479 3.05453491 -0.04844666 C4.14722687 -0.05380936 5.23991882 -0.05917206 6.36572266 -0.06469727 C7.48540436 -0.07372574 8.60508606 -0.08275421 9.75869751 -0.09205627 C12.13093379 -0.10658497 14.50321038 -0.11545198 16.87548828 -0.11914062 C20.50833596 -0.1310333 24.13948395 -0.1801932 27.77197266 -0.23071289 C30.07404768 -0.24017693 32.37613316 -0.24741205 34.67822266 -0.25219727 C35.76686615 -0.27172958 36.85550964 -0.2912619 37.97714233 -0.31138611 C45.50713743 -0.2662661 45.50713743 -0.2662661 48.80957031 2.65380859 C51.87937406 8.70706046 51.60658558 14.64439387 51.15478516 21.30639648 C49.5251015 26.10967464 46.8661915 28.89591498 43.15478516 32.30639648 C46.78478516 33.29639648 50.41478516 34.28639648 54.15478516 35.30639648 C53.15478516 40.30639648 53.15478516 40.30639648 50.40478516 42.61889648 C47.21291434 44.27621402 45.66157421 44.7189599 42.15478516 44.30639648 C42.64978516 45.91514648 42.64978516 45.91514648 43.15478516 47.55639648 C44.15478516 51.30639648 44.15478516 51.30639648 44.15478516 55.30639648 C28.97478516 55.30639648 13.79478516 55.30639648 -1.84521484 55.30639648 C-1.84521484 48.30639648 -1.84521484 48.30639648 -0.84521484 45.30639648 C-1.56708984 45.22389648 -2.28896484 45.14139648 -3.03271484 45.05639648 C-6.51306256 44.12830376 -8.33865954 42.88456765 -10.84521484 40.30639648 C-11.22021484 37.61889648 -11.22021484 37.61889648 -10.84521484 35.30639648 C-8.92837775 33.38955939 -5.47964192 33.87889343 -2.87646484 33.68530273 C-2.20615234 33.56026367 -1.53583984 33.43522461 -0.84521484 33.30639648 C-0.51521484 32.64639648 -0.18521484 31.98639648 0.15478516 31.30639648 C-0.40208984 31.26514648 -0.95896484 31.22389648 -1.53271484 31.18139648 C-5.07743848 29.8401497 -6.63205779 27.29714926 -8.84521484 24.30639648 C-10.82072222 18.37987436 -10.90119765 11.00102199 -8.47021484 5.18139648 C-6.00239132 0.81524717 -4.88211151 0.05839741 0 0 Z " fill="#C3B3DD" transform="translate(136.84521484375,-0.306396484375)"/>
<path d="M0 0 C2.98704569 0.49784095 4.39324263 1.26216175 7 3 C10.10003471 3.31837697 10.10003471 3.31837697 13.5 3.25 C14.6446875 3.25515625 15.789375 3.2603125 16.96875 3.265625 C20.17666163 3.22885568 20.17666163 3.22885568 23 1 C24.32 1.33 25.64 1.66 27 2 C27.66 4.97 28.32 7.94 29 11 C29.66 10.67 30.32 10.34 31 10 C31.65772428 6.97065509 31.65772428 6.97065509 32 4 C32.99 4.33 33.98 4.66 35 5 C34.37305699 10.64248705 34.37305699 10.64248705 32.5 12.4375 C30.12998464 14.906266 30.31120448 17.70123249 30 21 C30.61875 21.2475 31.2375 21.495 31.875 21.75 C34 23 34 23 36 27 C21.15 27 6.3 27 -9 27 C-7.68 25.68 -6.36 24.36 -5 23 C-4.13987826 20.47069844 -4.13987826 20.47069844 -3.8125 17.8125 C-3.06944444 13.06944444 -3.06944444 13.06944444 -2 12 C-1.79162581 10.17093765 -1.63250341 8.33611866 -1.5 6.5 C-1.11111111 1.11111111 -1.11111111 1.11111111 0 0 Z " fill="#C4B3DD" transform="translate(144,175)"/>
<path d="M0 0 C1.5 1.375 1.5 1.375 3 3 C3 3.66 3 4.32 3 5 C4.32 5.33 5.64 5.66 7 6 C7 6.66 7 7.32 7 8 C6.38125 8.061875 5.7625 8.12375 5.125 8.1875 C2.72238859 8.828919 2.72238859 8.828919 1.75 11.5625 C1.5025 12.366875 1.255 13.17125 1 14 C0.1028125 12.7934375 0.1028125 12.7934375 -0.8125 11.5625 C-2.80947276 8.77672016 -2.80947276 8.77672016 -6 8 C-6 7.34 -6 6.68 -6 6 C-5.38125 5.7525 -4.7625 5.505 -4.125 5.25 C-1.64931313 3.79371361 -1.04874998 2.62187494 0 0 Z " fill="#C7B5DE" transform="translate(97,23)"/>
<path d="M0 0 C0.66 0 1.32 0 2 0 C2.2475 0.598125 2.495 1.19625 2.75 1.8125 C4.16370012 4.28647521 5.65055383 5.43370255 8 7 C7.195625 7.2475 6.39125 7.495 5.5625 7.75 C2.828919 8.72238859 2.828919 8.72238859 2.1875 11.125 C2.125625 11.74375 2.06375 12.3625 2 13 C1.34 13 0.68 13 0 13 C-0.2475 12.38125 -0.495 11.7625 -0.75 11.125 C-2.20628639 8.64931313 -3.37812506 8.04874998 -6 7 C-5.195625 6.401875 -4.39125 5.80375 -3.5625 5.1875 C-0.77672016 3.19052724 -0.77672016 3.19052724 0 0 Z " fill="#C7B6DE" transform="translate(47,168)"/>
<path d="M0 0 C5.75 4.75 5.75 4.75 8 7 C6.7934375 7.6496875 6.7934375 7.6496875 5.5625 8.3125 C2.72153646 9.80474002 2.72153646 9.80474002 2 13 C1.34 13 0.68 13 0 13 C-0.061875 12.38125 -0.12375 11.7625 -0.1875 11.125 C-0.828919 8.72238859 -0.828919 8.72238859 -3.5625 7.75 C-4.366875 7.5025 -5.17125 7.255 -6 7 C-5.195625 6.21625 -4.39125 5.4325 -3.5625 4.625 C-1.01309583 2.28017144 -1.01309583 2.28017144 0 0 Z " fill="#C7B5DE" transform="translate(62,6)"/>
<path d="M0 0 C1.5 1.375 1.5 1.375 3 3 C3 3.66 3 4.32 3 5 C4.32 5.66 5.64 6.32 7 7 C4.66666667 9.33333333 2.33333333 11.66666667 0 14 C-0.433125 13.236875 -0.86625 12.47375 -1.3125 11.6875 C-2.73686785 9.41906232 -4.03260097 7.7800277 -6 6 C-5.38125 5.7525 -4.7625 5.505 -4.125 5.25 C-1.64931313 3.79371361 -1.04874998 2.62187494 0 0 Z " fill="#C6B5DE" transform="translate(92,166)"/>
<path d="M0 0 C0.226875 0.61875 0.45375 1.2375 0.6875 1.875 C2.37929835 4.61410209 3.99244161 5.05024472 7 6 C4.66666667 8.33333333 2.33333333 10.66666667 0 13 C-2.33333333 10.66666667 -4.66666667 8.33333333 -7 6 C-6.21625 5.566875 -5.4325 5.13375 -4.625 4.6875 C-1.78301625 3.10779753 -1.78301625 3.10779753 0 0 Z " fill="#C6B5DE" transform="translate(125,82)"/>
<path d="M0 0 C1.5 1.375 1.5 1.375 3 3 C3 3.66 3 4.32 3 5 C4.32 5.66 5.64 6.32 7 7 C4.66666667 9.33333333 2.33333333 11.66666667 0 14 C-0.0928125 12.824375 -0.0928125 12.824375 -0.1875 11.625 C-0.455625 10.75875 -0.72375 9.8925 -1 9 C-3.47636012 7.62533375 -3.47636012 7.62533375 -6 7 C-5.195625 6.21625 -4.39125 5.4325 -3.5625 4.625 C-1.01309583 2.28017144 -1.01309583 2.28017144 0 0 Z " fill="#C6B5DE" transform="translate(123,125)"/>
<path d="M0 0 C2.31 1.98 4.62 3.96 7 6 C5.02 6.99 5.02 6.99 3 8 C1.71745356 10.53770003 1.71745356 10.53770003 1 13 C-1.33333333 10.66666667 -3.66666667 8.33333333 -6 6 C-5.195625 5.7525 -4.39125 5.505 -3.5625 5.25 C-2.2940625 4.63125 -2.2940625 4.63125 -1 4 C-0.67 2.68 -0.34 1.36 0 0 Z " fill="#C6B4DE" transform="translate(166,116)"/>
<path d="M0 0 C0.33 1.32 0.66 2.64 1 4 C2.32 4.33 3.64 4.66 5 5 C5 5.66 5 6.32 5 7 C3.68 7.33 2.36 7.66 1 8 C0.67 9.32 0.34 10.64 0 12 C-2 12 -2 12 -4.625 9.625 C-7 7 -7 7 -7 5 C-2.47619048 0 -2.47619048 0 0 0 Z " fill="#C5B4DE" transform="translate(185,95)"/>
<path d="M0 0 C1.5 1.375 1.5 1.375 3 3 C3 3.66 3 4.32 3 5 C4.32 5.33 5.64 5.66 7 6 C5.02 8.31 3.04 10.62 1 13 C0.34 11.68 -0.32 10.36 -1 9 C-3.53770003 7.71745356 -3.53770003 7.71745356 -6 7 C-5.195625 6.21625 -4.39125 5.4325 -3.5625 4.625 C-1.01309583 2.28017144 -1.01309583 2.28017144 0 0 Z " fill="#C6B4DE" transform="translate(14,71)"/>
<path d="M0 0 C2.31 1.98 4.62 3.96 7 6 C5.02 6.99 5.02 6.99 3 8 C1.71745356 10.53770003 1.71745356 10.53770003 1 13 C-1.33333333 10.66666667 -3.66666667 8.33333333 -6 6 C-5.195625 5.7525 -4.39125 5.505 -3.5625 5.25 C-2.2940625 4.63125 -2.2940625 4.63125 -1 4 C-0.67 2.68 -0.34 1.36 0 0 Z " fill="#C6B4DE" transform="translate(14,9)"/>
</svg>
