<svg width="470" height="420" viewBox="0 0 470 420" fill="none" xmlns="http://www.w3.org/2000/svg">
<g clip-path="url(#clip0_1_3)">
<path d="M96.9504 125.805C125.392 108.304 157.459 101.109 185.335 103.054C213.225 105 236.837 116.083 248.501 135.041C260.166 153.999 259.307 178.26 248.375 202.211C237.445 226.158 216.465 249.739 188.008 267.248C159.552 284.757 129.046 292.856 102.743 291.819C76.4355 290.781 54.3916 280.612 42.7264 261.654C31.0489 242.675 30.3605 217.488 39.731 192.631C49.0993 167.78 68.5105 143.304 96.9504 125.805Z" fill="black" stroke="black"/>
<path d="M239.986 228.523C282.504 207.563 330.176 219.292 346.987 253.393C363.799 287.495 344.071 332.45 301.553 353.411C259.034 374.372 211.362 362.642 194.551 328.541C177.74 294.44 197.467 249.484 239.986 228.523Z" fill="white" stroke="black" stroke-width="5"/>
<path d="M466.306 253.246C466.14 263.007 465.298 271.207 461.825 278.419C458.391 285.55 452.243 291.993 440.907 297.893C418.05 309.79 374.89 319.098 293.337 327.42C259.811 319.83 240.842 300.816 231.641 276.936C222.342 252.802 222.941 223.468 229.166 195.549C235.974 165.017 243.145 146.999 250.732 137.458C254.478 132.746 258.221 130.235 261.958 129.199C265.699 128.161 269.737 128.517 274.224 130.097C283.363 133.314 293.608 141.303 305.519 151.056C306.638 151.972 307.769 152.902 308.913 153.842C319.803 162.791 331.867 172.704 345.163 180.792C348.653 182.916 353.281 184.122 358.437 184.895C363.631 185.675 369.629 186.05 375.997 186.36C377.562 186.436 379.151 186.508 380.759 186.582C392.338 187.109 404.932 187.682 416.902 190.047C430.514 192.737 442.978 197.687 451.958 207.228C460.888 216.716 466.681 231.077 466.306 253.246Z" fill="white" stroke="black" stroke-width="5"/>
<path d="M287.054 335.645C251.272 363.298 213.821 388.577 181.291 401.724C164.937 408.334 150.027 411.794 137.306 411.083C124.689 410.378 114.225 405.582 106.459 395.547C90.6807 375.158 90.0585 345.57 102.639 313.743C115.196 281.975 140.766 248.446 176.462 220.821C194.408 206.932 208.303 197.849 219.546 192.639C230.774 187.436 239.127 186.205 246.115 187.69C253.112 189.177 259.182 193.48 265.667 200.298C270.913 205.814 276.244 212.765 282.471 220.883C283.822 222.645 285.215 224.462 286.659 226.331C286.817 243.872 291.824 251.506 295.985 257.851C297.48 260.132 298.867 262.246 299.88 264.594C301.817 269.083 302.911 275.095 301.329 285.973C299.754 296.806 295.549 312.301 287.054 335.645Z" fill="white" stroke="black" stroke-width="5"/>
<path d="M323.458 201.216L323.486 201.258L323.522 201.294C373.112 250.884 358.151 324.994 304.043 349.729C277.704 361.77 254.001 364.32 234.039 359.55C214.081 354.781 197.816 342.685 186.362 325.345C163.522 290.77 178.314 240.568 219.657 213.258C240.409 199.55 260.704 187.907 278.659 184.022C287.627 182.081 295.979 182.083 303.502 184.705C311.017 187.325 317.751 192.576 323.458 201.216Z" fill="white" stroke="white"/>
<path d="M133.938 292.634C141.201 322.668 140.6 351.467 133.883 373.711C127.145 396.021 114.443 411.258 97.8311 415.275C81.2192 419.292 62.9584 411.542 46.7717 394.776C30.6325 378.059 16.9394 352.716 9.67681 322.683C2.41426 292.649 3.01476 263.85 9.73257 241.606C16.4701 219.296 29.1722 204.059 45.784 200.042C62.3958 196.025 80.6567 203.775 96.8434 220.541C112.983 237.258 126.676 262.601 133.938 292.634Z" fill="white" stroke="black" stroke-width="5"/>
<path d="M239.343 255.76C246.293 285.867 245.394 314.659 238.446 336.832C231.478 359.071 218.618 374.176 201.966 378.02C185.313 381.865 167.133 373.926 151.122 356.993C135.157 340.11 121.727 314.626 114.776 284.519C107.825 254.412 108.725 225.62 115.673 203.447C122.641 181.208 135.501 166.103 152.153 162.259C168.806 158.414 186.985 166.353 202.997 183.286C218.962 200.17 232.392 225.653 239.343 255.76Z" fill="white" stroke="black" stroke-width="5"/>
<path d="M97.4989 123.774C124.258 108.325 152.055 100.767 175.291 100.928C198.595 101.091 216.799 108.972 225.345 123.773C233.89 138.574 231.613 158.28 220.101 178.543C208.623 198.747 188.18 219.04 161.42 234.49C134.374 250.105 100.658 267.866 71.4859 277.768C56.8792 282.726 43.6133 285.643 32.984 285.44C22.3775 285.237 14.9011 281.968 10.9309 275.091C6.82634 267.982 6.45185 257.077 9.51871 243.718C12.561 230.465 18.8821 215.275 27.4993 200.015C44.7597 169.449 70.9374 139.11 97.4989 123.774Z" fill="white" stroke="black" stroke-width="5"/>
<path d="M187.75 256.067L187.721 256.084L187.694 256.104C141.9 291.541 95.16 304.754 61.0198 305.875C43.9421 306.436 30.0525 303.971 21.0161 299.781C16.4965 297.685 13.2291 295.176 11.3661 292.436C9.5162 289.715 9.03848 286.754 10.1082 283.664L10.1532 283.534L10.1254 283.399C8.5217 275.627 9.28561 264.296 12.3201 251.083C15.3517 237.882 20.6385 222.849 28.0367 207.693C42.8373 177.372 66.0579 146.618 96.499 129.042C123.511 113.447 151.655 105.764 175.305 105.929C198.968 106.093 218.031 114.105 227.077 129.773C236.176 145.534 239.83 169.33 234.452 193.09C229.078 216.834 214.692 240.512 187.75 256.067Z" fill="white" stroke="white"/>
<circle cx="242.636" cy="119" r="111" fill="white" stroke="black" stroke-width="4"/>
<path d="M8.5 261C11.2355 244.52 13.9618 241.3 23.5045 241.173C33.0472 241.045 36.6269 253.273 36.8285 268.413C37.0301 283.554 33.7773 295.873 24.2346 296C4.69355 308.433 5.26008 280.52 8.5 261Z" fill="white"/>
</g>
<defs>
<clipPath id="clip0_1_3">
<rect width="470" height="420" fill="white"/>
</clipPath>
</defs>
</svg>
