<?xml version="1.0" encoding="UTF-8"?>
<svg version="1.1" xmlns="http://www.w3.org/2000/svg" width="1024" height="354">
<path d="M0 0 C7.54344883 5.2415876 11.30941376 11.00645681 13.1875 19.9375 C14.40414608 27.56037986 14.65687913 35.29783952 15 43 C15.64066406 43.08636719 16.28132812 43.17273438 16.94140625 43.26171875 C17.80636719 43.40222656 18.67132812 43.54273438 19.5625 43.6875 C20.40941406 43.81511719 21.25632812 43.94273438 22.12890625 44.07421875 C26.07122793 45.34541635 28.71440123 47.48604989 32 50 C32.02578125 48.68386719 32.0515625 47.36773437 32.078125 46.01171875 C32.43288324 33.50232414 32.83968822 22.2549932 41.94140625 12.72265625 C49.39413446 6.48612277 57.34285738 4.97394696 66.83056641 4.69238281 C67.82570063 4.66215153 67.82570063 4.66215153 68.84093857 4.63130951 C71.05269968 4.56653184 73.26456351 4.50916296 75.4765625 4.453125 C76.25370228 4.43243202 77.03084206 4.41173904 77.83153152 4.39041901 C97.35139528 3.87871931 116.87320845 3.77818779 136.39892578 3.75976562 C141.43665397 3.75418926 146.4741243 3.72986897 151.51177025 3.70179367 C155.466896 3.68309501 159.42195859 3.67795886 163.37712479 3.67642975 C165.2355968 3.67344265 167.0940688 3.6655515 168.95249557 3.65224457 C198.73452788 3.45334072 198.73452788 3.45334072 210 13 C216.969069 20.97087267 218.28757824 29.16144403 218.6171875 39.40234375 C218.65472137 40.40474594 218.69225525 41.40714813 218.73092651 42.43992615 C219.08585754 52.78304989 219.15174352 63.12551116 219.13037109 73.47387695 C219.12494755 76.59265883 219.1303951 79.71130019 219.13671875 82.83007812 C219.15248811 119.47860639 219.15248811 119.47860639 209.6875 129.53515625 C200.29020398 137.69253127 187.73871459 137.30446234 176 137 C177.32 137.66 178.64 138.32 180 139 C178.02 139 176.04 139 174 139 C174 138.01 174 137.02 174 136 C166.74 136.33 159.48 136.66 152 137 C152.33 137.66 152.66 138.32 153 139 C151.68 138.67 150.36 138.34 149 138 C149 137.34 149 136.68 149 136 C139.1 136 129.2 136 119 136 C120.32 136.99 121.64 137.98 123 139 C121.35 139 119.7 139 118 139 C118 138.01 118 137.02 118 136 C116.02 136.33 114.04 136.66 112 137 C112.33 137.66 112.66 138.32 113 139 C112.01 139 111.02 139 110 139 C110 138.01 110 137.02 110 136 C109.34 136.33 108.68 136.66 108 137 C106.00039988 137.039992 103.99952758 137.04346799 102 137 C102 137.99 102 138.98 102 140 C103.83924042 139.99000725 103.83924042 139.99000725 105.71563721 139.97981262 C117.30819319 139.91882378 128.90071634 139.87394225 140.49339676 139.84456348 C146.45237194 139.8289515 152.41121692 139.80779514 158.37011719 139.77368164 C164.1278485 139.74092854 169.88545507 139.72311343 175.6432724 139.71536827 C177.83275056 139.7098533 180.02222241 139.69908438 182.21164703 139.68280983 C210.92878907 139.47796475 210.92878907 139.47796475 219.5390625 146.4921875 C226.41916111 153.59303794 228.24875238 162.04506911 228.265625 171.69921875 C228.26992271 172.76221947 228.26992271 172.76221947 228.27430725 173.84669495 C228.27865234 176.12717946 228.26618108 178.40707424 228.25 180.6875 C228.24656586 181.47000122 228.24313171 182.25250244 228.23959351 183.05871582 C228.09702013 210.73705484 227.53664823 246.53862102 207.27734375 267.80859375 C197.86880396 276.40272691 187.00325414 278.39970156 174.5 277.875 C163.50903869 276.89727645 154.78485142 273.65519047 146 267 C145.49210938 267.26554687 144.98421875 267.53109375 144.4609375 267.8046875 C133.79614304 273.27688541 124.16205867 274.15536007 112.3359375 274.203125 C111.22626617 274.20882507 110.11659485 274.21452515 108.97329712 274.22039795 C106.63178448 274.22980995 104.29025883 274.23636674 101.94873047 274.24023438 C98.40698517 274.2499126 94.86582753 274.28096209 91.32421875 274.3125 C57.74156194 274.47092342 57.74156194 274.47092342 45.125 263.5 C44.42375 262.675 43.7225 261.85 43 261 C42.319375 260.236875 41.63875 259.47375 40.9375 258.6875 C32.71996845 247.2889885 32.64409907 234.96953906 32.375 221.4375 C32.33674791 219.84047517 32.29769218 218.24346939 32.2578125 216.64648438 C32.16260319 212.76448049 32.07829048 208.88238044 32 205 C31.34 204.67 30.68 204.34 30 204 C30 203.34 30 202.68 30 202 C29.22076172 201.63648438 29.22076172 201.63648438 28.42578125 201.265625 C23.27368195 198.78956988 19.0690378 196.0690378 15 192 C14.99635437 192.63512009 14.99270874 193.27024017 14.98895264 193.92460632 C14.94682535 200.59340745 14.87727224 207.26153956 14.79248047 213.92993164 C14.76442406 216.41163408 14.7431341 218.89342334 14.72900391 221.37524414 C14.7073614 224.96284956 14.66060174 228.54942776 14.609375 232.13671875 C14.60814636 233.22893234 14.60691772 234.32114594 14.60565186 235.44645691 C14.38491431 247.31380541 11.69964513 258.50626363 3 267 C-8.83271741 276.84257116 -22.93728961 278.03346255 -37.78125 276.76171875 C-46.66724893 275.33361178 -56.34363539 271.35312279 -61.82421875 263.96484375 C-67.08939041 255.16623463 -69.13773679 245.43389254 -67.4375 235.25 C-65.79928967 229.33959409 -62.72334695 224.87628586 -57.6640625 221.390625 C-52.24686139 218.42366562 -48.13538592 217.43190871 -42 218 C-42 213.38 -42 208.76 -42 204 C-42.66 203.67 -43.32 203.34 -44 203 C-43.34 203 -42.68 203 -42 203 C-42.495 201.02 -42.495 201.02 -43 199 C-43.94359375 198.85304687 -43.94359375 198.85304687 -44.90625 198.703125 C-53.79934561 197.14951191 -60.00785685 194.81074383 -65.87109375 187.78125 C-67 186 -67 186 -67.53515625 183.84375 C-67.68855469 183.2353125 -67.84195313 182.626875 -68 182 C-68.66 181.67 -69.32 181.34 -70 181 C-70.7772092 160.98686297 -70.7772092 160.98686297 -66 154 C-65.61457031 153.43152344 -65.22914063 152.86304688 -64.83203125 152.27734375 C-60.74640377 146.89595093 -55.51764525 143.59615802 -49 142 C-46.69 142 -44.38 142 -42 142 C-42 128.47 -42 114.94 -42 101 C-44.97 100.67 -47.94 100.34 -51 100 C-58.34689735 97.65823929 -63.30131675 93.7504021 -67 87 C-71.26864577 78.1543272 -71.19971643 68.56167674 -68.02734375 59.3515625 C-64.85666645 52.09396654 -60.6864284 48.14711522 -53.48046875 44.8984375 C-50.26106112 43.73235285 -47.41071147 43.2224377 -44 43 C-42.9977717 39.99331509 -42.95601419 38.2454971 -43.0625 35.125 C-43.12188899 23.90048017 -41.97162528 13.54704956 -34.17578125 5 C-25.01608875 -3.63782397 -11.35765207 -6.67262059 0 0 Z M91 54 C91.33 55.32 91.66 56.64 92 58 C92.77714355 58 93.55428711 58 94.35498047 58 C120 58 120 58 123.68359375 58.01586914 C127.88117748 58.03383364 132.07875644 58.04540893 136.27636719 58.05493164 C138.09212825 58.05997723 139.90788523 58.06681319 141.72363281 58.07543945 C144.3365987 58.08753213 146.9495113 58.09323306 149.5625 58.09765625 C150.7844104 58.10539818 150.7844104 58.10539818 152.03100586 58.11329651 C156.14729302 58.22011503 156.14729302 58.22011503 160 57 C159.505 55.02 159.505 55.02 159 53 C151.01983191 52.97678745 143.03967803 52.95903956 135.05948448 52.94818783 C131.353609 52.94297847 127.64775668 52.9359163 123.94189453 52.92456055 C120.36277668 52.91366232 116.78368105 52.9077085 113.20454788 52.90512276 C111.84187088 52.90328098 110.47919504 52.89968451 109.11652756 52.89426994 C107.2018834 52.88696751 105.28721667 52.88659116 103.37255859 52.88647461 C101.74040909 52.88314369 101.74040909 52.88314369 100.07528687 52.87974548 C96.97296606 53.00105712 94.0476571 53.42260995 91 54 Z M92 89 C92.66 89.33 93.32 89.66 94 90 C93.01 91.32 92.02 92.64 91 94 C99.70115581 94.0462833 108.40226942 94.08184872 117.10352135 94.10362434 C121.14360264 94.11407407 125.18359989 94.1282548 129.22363281 94.15087891 C133.12044733 94.17256512 137.01718087 94.18455967 140.91405106 94.18975449 C142.40285136 94.19345786 143.8916471 94.20068938 145.38041306 94.21146011 C147.46122667 94.22591919 149.54170306 94.22798033 151.62255859 94.22705078 C152.80836517 94.231492 153.99417175 94.23593323 155.21591187 94.24050903 C158.14032538 94.28875783 158.14032538 94.28875783 160 92 C160.33 91.34 160.66 90.68 161 90 C158.45097539 88.72548769 156.65854905 88.88657938 153.80859375 88.90234375 C152.26848633 88.90717773 152.26848633 88.90717773 150.69726562 88.91210938 C149.08368164 88.92467773 149.08368164 88.92467773 147.4375 88.9375 C146.35791016 88.94201172 145.27832031 88.94652344 144.16601562 88.95117188 C141.44396053 88.96314823 138.72200768 88.98030385 136 89 C121.33333333 89 106.66666667 89 92 89 Z M91 90 C92 92 92 92 92 92 Z M29.1875 93.375 C24.52750659 97.284094 21.09146239 98.19546723 15 99 C13.69338505 100.08108449 13.69338505 100.08108449 13.88647461 102.68383789 C13.89171143 103.85164795 13.89694824 105.01945801 13.90234375 106.22265625 C13.90556641 107.48271484 13.90878906 108.74277344 13.91210938 110.04101562 C13.92046597 111.38151109 13.92893093 112.72200588 13.9375 114.0625 C13.9425134 115.40689942 13.94707658 116.7513006 13.95117188 118.09570312 C13.96300512 121.39717941 13.97949029 124.69856803 14 128 C14.89638184 128.12334717 15.79276367 128.24669434 16.71630859 128.3737793 C17.89016113 128.54304932 19.06401367 128.71231934 20.2734375 128.88671875 C22.02019775 129.1336145 22.02019775 129.1336145 23.80224609 129.38549805 C28.89671551 130.36448564 31.4830227 132.10377837 34.75 136.1875 C36.44981734 140.01208903 37.24027663 143.89749382 38 148 C38.680625 147.29875 39.36125 146.5975 40.0625 145.875 C43.20780513 142.72065663 46.5888386 139.86065696 50 137 C47.95670222 134.80534683 46.1917369 133.10597599 43.5546875 131.6484375 C38.18202399 128.18167297 35.13547223 121.66866435 33.625 115.5625 C32.32838995 107.51055156 32.84980311 99.12732037 33 91 C31.51381522 90.89246986 31.51381522 90.89246986 29.1875 93.375 Z M157 181 C156.34 181.66 155.68 182.32 155 183 C155.515625 183.86625 156.03125 184.7325 156.5625 185.625 C158.22929013 189.53833336 158.33397199 190.99808402 157 195 C154.1379425 199.05458146 151.4153901 201.72922795 147 204 C149.71524227 205.81016151 151.37938657 206.47190558 154.4375 207.3125 C158.65496336 208.67495976 160.67615805 210.09594552 163 214 C164.25 216.8125 164.25 216.8125 165 219 C166.79132087 216.31301869 167.37356279 215.02261361 168 212 C168.26039063 210.75992188 168.52078125 209.51984375 168.7890625 208.2421875 C171.64018134 195.46594098 171.64018134 195.46594098 169 183 C166.2622466 182.22974068 166.2622466 182.22974068 163.0625 181.75 C161.98097656 181.55921875 160.89945313 181.3684375 159.78515625 181.171875 C158.86605469 181.11515625 157.94695312 181.0584375 157 181 Z M84 184 C84 184.33 84 184.66 84 185 C86.31 185 88.62 185 91 185 C91 184.67 91 184.34 91 184 C88.69 184 86.38 184 84 184 Z M114 222 C114.66 222.66 115.32 223.32 116 224 C116.33 223.34 116.66 222.68 117 222 C116.01 222 115.02 222 114 222 Z M102.890625 223.65625 C101.75947266 223.85927734 101.75947266 223.85927734 100.60546875 224.06640625 C99.82816406 224.20949219 99.05085937 224.35257813 98.25 224.5 C97.06083984 224.71462891 97.06083984 224.71462891 95.84765625 224.93359375 C93.89787496 225.28596386 91.94885956 225.64256724 90 226 C92.96022599 227.69605909 95.07468389 228.24880481 98.4765625 228.23046875 C99.311875 228.22853516 100.1471875 228.22660156 101.0078125 228.22460938 C101.87148438 228.21236328 102.73515625 228.20011719 103.625 228.1875 C104.49640625 228.18685547 105.3678125 228.18621094 106.265625 228.18554688 C110.78548847 228.3026339 110.78548847 228.3026339 115 227 C114.67 226.01 114.34 225.02 114 224 C114 224.66 114 225.32 114 226 C113.01 226 112.02 226 111 226 C111 225.01 111 224.02 111 223 C108.04633761 223 105.73663284 223.13879403 102.890625 223.65625 Z " fill="#FEB0CF" transform="translate(738,42)"/>
<path d="M0 0 C22.93860052 0.52671873 22.93860052 0.52671873 32 10 C39.44702711 21.4187749 39.28608787 34.03452317 39.125 47.1875 C39.11494179 48.63085311 39.105821 50.07421306 39.09765625 51.51757812 C39.07588691 55.01186394 39.04151675 58.50588637 39 62 C40.13634888 61.75878418 40.13634888 61.75878418 41.2956543 61.51269531 C49.61855741 59.93482255 58.46647848 59.9641849 66 64 C68.31649609 65.87216817 70.04972726 67.70842953 72 70 C72 70.66 72 71.32 72 72 C72.66 72 73.32 72 74 72 C73.9685791 71.10244995 73.9685791 71.10244995 73.93652344 70.18676758 C73.4354373 53.67471074 73.66275167 40.12245921 85 27 C94.51927385 17.06512376 108.13312113 9.85016111 121.4375 6.6875 C125.72072501 5.64883079 129.75581558 4.37170806 133.875 2.8125 C143.22398544 -0.35685501 152.88684404 -0.4353792 161.890625 3.81640625 C168.6710837 7.62099696 172.86374868 12.95109639 176 20 C176.40595881 22.32179952 176.75520458 24.65572383 177 27 C178.00160156 26.51789063 179.00320313 26.03578125 180.03515625 25.5390625 C181.37747 24.90075946 182.71992554 24.2627545 184.0625 23.625 C184.71927734 23.30789062 185.37605469 22.99078125 186.05273438 22.6640625 C196.91365519 17.5278635 207.45392338 15.58023584 219.140625 18.92578125 C228.96942826 22.61829614 235.57749911 29.52613854 240.140625 38.8125 C242.29021308 44.28417875 243.25446561 49.27596654 243.31884766 55.14672852 C243.32889328 55.82442291 243.3389389 56.50211731 243.34928894 57.2003479 C243.37999323 59.42652658 243.3971543 61.65258359 243.4140625 63.87890625 C243.43282874 65.45288546 243.45240592 67.02685519 243.4727478 68.60081482 C243.52399236 72.74659336 243.563581 76.89240598 243.60089111 81.03833008 C243.64043608 85.17863804 243.69205748 89.31879365 243.7421875 93.45898438 C243.90003545 106.86147081 244.02982639 120.26446453 244.04296875 133.66796875 C244.0447966 134.89127647 244.0447966 134.89127647 244.04666138 136.13929749 C244.00160554 171.3680851 244.00160554 171.3680851 233.21484375 182.91015625 C227.798197 187.9822052 221.97255436 190.67581521 215 193 C215.845625 193.09796875 216.69125 193.1959375 217.5625 193.296875 C226.58760203 194.48654754 233.56587455 195.54026832 239.375 202.9375 C246.68596149 213.67609385 245.66341335 226.10661398 243.75 238.4375 C240.94408527 251.76559495 234.11820147 261.62846213 222.94140625 269.27734375 C206.67618944 278.80318786 186.27512349 277.32040896 168.13183594 277.26074219 C164.27262516 277.25006261 160.41388378 277.26066196 156.5546875 277.2734375 C102.54974149 277.3053557 102.54974149 277.3053557 85.625 261.828125 C77.45569295 253.11820204 75.15369051 244.61687609 73 233 C72.56461914 233.36134033 72.12923828 233.72268066 71.68066406 234.0949707 C65.80083331 238.75670802 59.51260413 241.98387743 52.75 245.1875 C51.57848389 245.74630859 50.40696777 246.30511719 49.19995117 246.88085938 C36.39665589 252.92435153 23.28149841 258.10021857 10 263 C8.75259033 263.47252197 8.75259033 263.47252197 7.47998047 263.95458984 C-2.78075168 267.80544823 -15.17569288 271.03643961 -25.7734375 266.56640625 C-34.20866964 262.47133593 -38.49275055 257.53716637 -41.85546875 248.76953125 C-44.30578733 239.74117622 -43.10670267 230.3387509 -38.58984375 222.1953125 C-35.04833793 217.30507596 -29.8387728 213.62188133 -24 212 C-22.68 212 -21.36 212 -20 212 C-19.95373312 200.16963163 -19.91815961 188.33928466 -19.89637566 176.50884438 C-19.88592237 171.01595497 -19.87173507 165.5231273 -19.84912109 160.03027344 C-19.8274477 154.73294846 -19.81544302 149.43568299 -19.81024551 144.13831711 C-19.80653984 142.11363157 -19.79930396 140.08894941 -19.78853989 138.06428909 C-19.77409806 135.23630898 -19.77201898 132.40857724 -19.77294922 129.58056641 C-19.76575867 128.73683975 -19.75856812 127.8931131 -19.75115967 127.02381897 C-19.57260674 122.53883173 -19.57260674 122.53883173 -22 119 C-22.125 116.375 -22.125 116.375 -22 114 C-22.87011719 113.76216797 -22.87011719 113.76216797 -23.7578125 113.51953125 C-30.97799307 111.36300867 -35.73621592 108.37847318 -39.8125 101.875 C-44.01611636 93.64461846 -43.58970728 85.45159029 -41.0625 76.73046875 C-38.20262454 69.38100938 -33.29142089 66.20191884 -26.3671875 62.84765625 C-24 62 -24 62 -20 62 C-20.00785522 60.91283691 -20.00785522 60.91283691 -20.01586914 59.80371094 C-20.0369276 56.45248313 -20.04975061 53.10126933 -20.0625 49.75 C-20.07087891 48.61046875 -20.07925781 47.4709375 -20.08789062 46.296875 C-20.16645013 18.64392921 -20.16645013 18.64392921 -9.94921875 7.6953125 C-6.89141748 5.03582202 -3.72505271 3.56844325 0 2 C0 1.34 0 0.68 0 0 Z M181 92 C179.59374449 93.17829585 179.59374449 93.17829585 179.88647461 96.51000977 C179.88663374 98.07048422 179.89232858 99.63096393 179.90234375 101.19140625 C179.9037587 102.01124496 179.90517365 102.83108368 179.90663147 103.67576599 C179.91224711 106.30471382 179.92480221 108.93357773 179.9375 111.5625 C179.94251299 113.34049357 179.94707624 115.11848846 179.95117188 116.89648438 C179.96222161 121.26435545 179.97949669 125.63216348 180 130 C181.32 130 182.64 130 184 130 C184.0740421 124.90970056 184.12855008 119.81971308 184.16479492 114.72900391 C184.1799009 112.99652651 184.20038694 111.26408746 184.22631836 109.53173828 C184.26262321 107.04450022 184.27970765 104.55776674 184.29296875 102.0703125 C184.30845261 101.29317902 184.32393646 100.51604553 184.33988953 99.71536255 C184.37569565 97.30264162 184.37569565 97.30264162 184 94 C183.01 93.34 182.02 92.68 181 92 Z M39 120 C39 143.1 39 166.2 39 190 C42.3 189.01 45.6 188.02 49 187 C55.09911648 185.18674916 58.36719088 184.48458948 64.17578125 187.17578125 C66.01043844 188.07942422 66.01043844 188.07942422 68.16015625 188.48046875 C70 189 70 189 71.125 191 C71.41375 191.66 71.7025 192.32 72 193 C72.99 193.495 72.99 193.495 74 194 C74 174.2 74 154.4 74 134 C72.35 134.66 70.7 135.32 69 136 C62.73334645 137.49634636 57.66054367 137.1723926 52 134 C46.88887937 130.07751208 44.61660677 124.73426591 42 119 C40.7763932 118.9254644 40.7763932 118.9254644 39 120 Z M180 189 C179.96132813 190.2684375 179.96132813 190.2684375 179.921875 191.5625 C179.50325141 199.93497175 178.67761983 206.11223047 172.8125 212.3125 C163.39650993 217.96209404 152.62049335 218.34997186 141.95703125 216.4609375 C137.11550119 215.12786871 132.67328854 213.49410373 129 210 C127.647519 206.73450405 126.75051497 203.44973547 126 200 C125.67 200 125.34 200 125 200 C124.9183918 202.37570543 124.85922778 204.74855841 124.8125 207.125 C124.77479492 208.12273437 124.77479492 208.12273437 124.73632812 209.140625 C124.66696139 213.85756308 125.42163702 217.04292904 128 221 C136.72689488 224.5934273 146.64616316 224.18643628 155.92651367 224.18530273 C157.9295664 224.18749133 159.93257923 224.20601808 161.93554688 224.22460938 C175.65377457 224.45166862 175.65377457 224.45166862 187.3828125 218.17578125 C190.26797204 214.29405694 191.7592576 209.71154461 193.51171875 205.23828125 C195.4064235 201.1156822 197.19828024 199.35344557 201 197 C200.505 195.515 200.505 195.515 200 194 C199.19175781 193.89042969 198.38351562 193.78085938 197.55078125 193.66796875 C196.48214844 193.50941406 195.41351563 193.35085937 194.3125 193.1875 C193.25675781 193.03667969 192.20101562 192.88585937 191.11328125 192.73046875 C187.88656086 191.97338379 185.79028721 190.73501675 183 189 C182.01 189 181.02 189 180 189 Z M124 192 C125 194 125 194 125 194 Z M201 194 C201 194.66 201 195.32 201 196 C203.64 195.67 206.28 195.34 209 195 C209 194.67 209 194.34 209 194 C206.36 194 203.72 194 201 194 Z " fill="#FEB0CF" transform="translate(104,38)"/>
<path d="M0 0 C6.30403281 5.13248689 12.31230482 10.57778343 16.375 17.6875 C16.375 18.3475 16.375 19.0075 16.375 19.6875 C17.21417969 19.07003906 18.05335938 18.45257813 18.91796875 17.81640625 C34.07590913 7.00804224 50.98903518 0.90847048 68.6015625 -4.7421875 C73.69825322 -6.38725797 78.64038438 -8.3099464 83.5859375 -10.3671875 C98.74431322 -15.50490028 114.80278947 -12.25106885 128.75 -5.5 C129.41636475 -5.18095703 130.08272949 -4.86191406 130.76928711 -4.53320312 C134.28358758 -2.74092314 136.61877709 -1.1362766 139.10546875 1.94140625 C141.08629687 4.04247527 142.05277434 4.63550143 144.94238281 5.10180664 C148.08319376 5.13470692 151.17730217 5.0011482 154.3125 4.8125 C175.58385185 4.19818152 191.94060549 11.41356597 208.375 24.6875 C208.79458984 23.81158203 208.79458984 23.81158203 209.22265625 22.91796875 C216.1872103 9.43742515 229.62681224 0.81728736 243.62033463 -4.10179234 C253.90947569 -7.12660416 264.24175061 -6.74193605 274.86230469 -6.71655273 C277.0252823 -6.72226301 279.1882569 -6.7292298 281.35122681 -6.73735046 C287.19855526 -6.75522671 293.04573319 -6.75412359 298.89308071 -6.74840808 C303.78828222 -6.74530744 308.68345518 -6.75141858 313.57865262 -6.75744683 C325.13579278 -6.77147303 336.692859 -6.76994732 348.25 -6.75854492 C360.14017255 -6.74707257 372.0301193 -6.76112905 383.9202621 -6.7879414 C394.15762815 -6.81015539 404.39492363 -6.81672274 414.63231206 -6.81086498 C420.73379885 -6.807507 426.83514103 -6.80983287 432.93660736 -6.82711601 C438.67907895 -6.84267347 444.42121833 -6.83853244 450.16367722 -6.81981087 C452.25974086 -6.81614889 454.35582959 -6.81916279 456.45186996 -6.82969666 C478.47340899 -6.9318362 496.69339801 -3.25456481 513.1328125 12.453125 C513.87273438 13.19046875 514.61265625 13.9278125 515.375 14.6875 C515.97054687 15.28046875 516.56609375 15.8734375 517.1796875 16.484375 C517.57414063 16.88140625 517.96859375 17.2784375 518.375 17.6875 C518.99375 16.8521875 518.99375 16.8521875 519.625 16 C530.63800238 1.447104 543.89063019 -9.2847205 562.4765625 -12.02734375 C578.16886708 -13.57119582 592.88367676 -10.77648882 606.375 -2.3125 C607.82239705 -0.9059466 609.26037865 0.51037865 610.6875 1.9375 C612.73679149 3.85903697 612.73679149 3.85903697 615.375 4.6875 C620.15634159 3.60618909 624.20420013 1.69857306 628.56738281 -0.47607422 C637.86884001 -4.78007103 648.13758187 -4.4641542 658.14648438 -4.47363281 C660.04089264 -4.48108017 660.04089264 -4.48108017 661.97357178 -4.48867798 C665.42034294 -4.50171773 668.8670947 -4.50823088 672.31388664 -4.51268864 C674.4756025 -4.51563434 676.63731324 -4.51974195 678.79902649 -4.52419281 C685.58642598 -4.53784842 692.37381353 -4.54752332 699.1612258 -4.5513947 C706.95129193 -4.5558644 714.74118165 -4.57336964 722.53119421 -4.6023953 C728.58166522 -4.62414315 734.63208708 -4.63410598 740.68259668 -4.63543582 C744.28246024 -4.63647496 747.88215757 -4.64218892 751.48197937 -4.66025543 C777.48051629 -4.78320009 799.91917785 -3.75181734 820 14.75 C839.71266979 35.23024277 839.56232084 63.76539663 839.56030273 90.33984375 C839.56247169 93.52097319 839.58063338 96.70174488 839.59960938 99.8828125 C839.6288698 110.3398195 839.37778524 120.71029749 838.48828125 131.1328125 C838.37168404 132.5069783 838.37168404 132.5069783 838.25273132 133.90890503 C837.74874638 139.22724111 836.89903639 144.33394827 835.65663147 149.53155518 C835.1880549 153.11860186 836.65940037 155.3094164 838.5 158.3125 C845.19598427 170.06909682 847.49764813 183.54311225 847.578125 196.98828125 C847.58513931 197.77365768 847.59215363 198.55903412 847.59938049 199.36820984 C847.61688575 201.91219831 847.6232401 204.45595337 847.625 207 C847.62601212 208.30747192 847.62601212 208.30747192 847.62704468 209.64135742 C847.58061423 247.48347284 843.03606518 289.1157577 816.20703125 318.0234375 C801.32281858 332.63340169 781.52125706 337.28702334 761.26245117 337.16943359 C752.04362593 336.91815136 742.39718601 335.80136068 734.0859375 331.50390625 C729.75394856 330.19931592 725.62926054 330.97053961 721.1875 331.5 C720.27291016 331.59603516 719.35832031 331.69207031 718.41601562 331.79101562 C713.74401965 332.18875275 713.74401965 332.18875275 709.375 333.6875 C708.03520725 333.75847019 706.69176899 333.76654918 705.3503418 333.7409668 C704.51734055 333.7273259 703.68433929 333.713685 702.82609558 333.69963074 C701.46391655 333.6684893 701.46391655 333.6684893 700.07421875 333.63671875 C699.12803177 333.6178511 698.18184479 333.59898346 697.20698547 333.57954407 C695.18847015 333.53754962 693.17001058 333.49280156 691.15161133 333.44555664 C688.14089415 333.37679056 685.13015446 333.32153716 682.11914062 333.26757812 C672.36122804 333.06749578 662.65139289 332.67144377 652.9296875 331.78515625 C652.09140915 331.71141281 651.2531308 331.63766937 650.38945007 331.56169128 C638.64494039 330.3901242 628.14166234 326.54275831 617.828125 320.82421875 C615.22073268 319.407212 615.22073268 319.407212 611.375 319.6875 C609.16690338 321.01052125 609.16690338 321.01052125 606.9375 322.8125 C588.89488944 335.90067859 566.98086781 338.63399884 545.3125 336 C531.34368539 333.6798647 517.23388381 329.15612102 506.234375 319.8828125 C504.48226306 318.49909633 504.48226306 318.49909633 502.51953125 318.79296875 C499.59413266 320.01321698 496.85310508 321.49687131 494.0625 323 C481.42684105 329.54660882 468.01726393 331.85103458 453.87007141 331.82121277 C453.06371614 331.82347833 452.25736087 331.82574388 451.42657059 331.82807809 C448.75091816 331.83435874 446.07531715 331.83359257 443.3996582 331.83276367 C441.47033117 331.8357589 439.54100473 331.83916227 437.61167908 331.84294128 C432.38829488 331.85174918 427.16492709 331.85411807 421.94153619 331.85475707 C418.67242466 331.85546948 415.40331727 331.85760744 412.13420677 331.86025429 C400.71292228 331.86949762 389.29164944 331.87359051 377.87036133 331.87280273 C367.2509748 331.87220246 356.63163916 331.88274707 346.0122655 331.8985464 C336.87308493 331.91165536 327.73392092 331.91698521 318.59473103 331.91634732 C313.14611119 331.91609329 307.69753658 331.91889188 302.24892616 331.92952538 C297.11970685 331.9392628 291.99057548 331.93924712 286.86135292 331.93200874 C284.98859528 331.93096983 283.115832 331.93328411 281.24308395 331.9393692 C254.86385942 332.01946864 233.62506461 327.62292759 214.375 308.6875 C213.03833474 307.35750694 211.70361361 306.02553641 210.375 304.6875 C209.82585937 305.39712891 209.82585937 305.39712891 209.265625 306.12109375 C195.62528244 322.78179788 177.13170957 329.06444299 156.375 331.6875 C153.54643203 331.8563836 150.71958854 331.91713293 147.88671875 331.96875 C146.27799467 332.00650538 144.66927072 332.04426594 143.06054688 332.08203125 C140.5477947 332.13585654 138.03501394 332.18806531 135.5222168 332.23974609 C133.08111316 332.29137708 130.64018673 332.34861106 128.19921875 332.40625 C127.44404465 332.41982544 126.68887054 332.43340088 125.91081238 332.4473877 C122.01441297 332.47047861 122.01441297 332.47047861 118.375 333.6875 C116.70550227 333.36864862 115.0393419 333.03225342 113.375 332.6875 C111.16464156 332.56482692 108.95156872 332.48714106 106.73828125 332.44140625 C104.80239136 332.3945166 104.80239136 332.3945166 102.82739258 332.34667969 C102.15124908 332.33133179 101.47510559 332.31598389 100.7784729 332.3001709 C69.26935697 331.54413974 37.60578697 328.5419463 13.54296875 306.0390625 C11.375 303.6875 11.375 303.6875 11.375 301.6875 C6.32377086 302.33535304 2.11514 304.54331585 -2.4375 306.6875 C-54.53109394 330.60812667 -54.53109394 330.60812667 -80.765625 322.78125 C-97.3902559 316.42210157 -110.1719422 305.04241208 -117.47753906 288.79101562 C-124.36489053 272.01656512 -125.44795223 252.02092088 -118.55859375 235.0625 C-115.43607452 228.30219435 -111.20606607 221.22495276 -105.05395508 216.86572266 C-101.55825623 213.35294958 -101.98712049 209.13867285 -101.90605164 204.4304657 C-101.90998428 203.20946671 -101.91391693 201.98846771 -101.91796875 200.73046875 C-101.90284744 199.47236893 -101.88772614 198.2142691 -101.87214661 196.91804504 C-101.83648744 193.58534173 -101.82211139 190.25393734 -101.81811523 186.92114258 C-101.80876945 183.51561989 -101.77134715 180.11041646 -101.73632812 176.70507812 C-101.67339853 170.03254502 -101.63852618 163.36030625 -101.625 156.6875 C-102.23996338 156.40390625 -102.85492676 156.1203125 -103.48852539 155.828125 C-112.01886064 151.2739339 -117.77013753 139.62617732 -120.5546875 130.7109375 C-122.13777059 124.7555297 -123.26370557 118.84079573 -123.625 112.6875 C-123.66625 111.99527344 -123.7075 111.30304688 -123.75 110.58984375 C-124.22386716 94.27104326 -119.14929945 78.80651801 -107.9375 66.8125 C-106.59088236 65.57506758 -105.23919295 64.34302942 -103.875 63.125 C-101.15876455 60.00132923 -101.38767047 55.56000339 -101.03027344 51.59594727 C-99.10774182 30.88562624 -91.38654969 13.61000973 -75.484375 -0.171875 C-53.15949681 -16.88503517 -22.21040323 -16.59181226 0 0 Z M-74.625 17.6875 C-83.79873653 29.47194416 -87.55585189 43.61227808 -87.6484375 58.44140625 C-87.74608021 67.64911375 -87.74608021 67.64911375 -90.4765625 70.875 C-92.79239894 72.60994101 -95.18471847 74.13496208 -97.625 75.6875 C-105.37100959 82.84156562 -109.20561308 92.90373256 -109.84765625 103.2890625 C-110.29404094 117.49724486 -107.98731679 130.85271985 -98.6328125 142.078125 C-95.1267058 145.75622939 -92.38959804 147.87547254 -87.625 149.6875 C-87.59348567 158.71112026 -87.59963422 167.73370941 -87.65346622 176.75722694 C-87.67729011 180.94761388 -87.68828642 185.13720633 -87.66967773 189.32763672 C-87.65218505 193.37412266 -87.66876623 197.41918344 -87.70867729 201.46549606 C-87.71794987 203.00677408 -87.7150786 204.54817594 -87.69969368 206.08940506 C-87.59064999 218.19118873 -87.59064999 218.19118873 -90.17045593 221.92318726 C-91.9207497 223.42653789 -93.62980292 224.5439123 -95.625 225.6875 C-104.65981038 235.59006053 -108.71026049 246.23519174 -110 259.5625 C-109.31527767 272.59961319 -105.40789685 286.66035943 -96.625 296.6875 C-95.965 296.6875 -95.305 296.6875 -94.625 296.6875 C-94.13 298.1725 -94.13 298.1725 -93.625 299.6875 C-81.76232527 309.61719425 -68.6270398 311.84405222 -53.625 310.6875 C-41.42403854 308.69005376 -29.95123034 303.46136568 -18.625 298.6875 C-17.72313965 298.30867676 -16.8212793 297.92985352 -15.89208984 297.53955078 C-5.38094551 293.11194311 5.06401453 288.56561001 15.375 283.6875 C15.6328125 284.41195313 15.890625 285.13640625 16.15625 285.8828125 C21.48606632 298.14822314 33.00689904 305.17303822 44.7734375 310.33984375 C67.09067673 318.69065453 91.15788073 318.03946135 114.61572266 318.00317383 C118.68752903 317.99736599 122.75888246 318.01438658 126.83061409 318.0375185 C130.02068609 318.05240672 133.21065242 318.05310773 136.40075302 318.05000877 C137.90030698 318.05051361 139.39986823 318.05558877 140.89938736 318.06582069 C161.87391484 318.19153795 181.34858522 314.36627885 197.3671875 299.88671875 C205.04689114 291.91689297 210.55489984 280.84129012 210.375 269.6875 C211.365 270.0175 212.355 270.3475 213.375 270.6875 C213.045 271.6775 212.715 272.6675 212.375 273.6875 C214.97205814 286.95923095 221.56089162 299.34564153 232.6171875 307.30078125 C243.20149308 314.11463931 254.45599383 316.84169746 266.93676758 316.82794189 C267.78547865 316.83091302 268.63418972 316.83388414 269.50861931 316.8369453 C272.34560003 316.84559979 275.18253839 316.84713781 278.01953125 316.84863281 C280.05678904 316.8532634 282.09404596 316.85828838 284.13130188 316.86367798 C289.6627016 316.87678344 295.1940892 316.88324368 300.72550201 316.88768864 C304.18539085 316.89062321 307.6452764 316.89472881 311.10516357 316.89919281 C321.94193633 316.91286475 332.77870155 316.92253209 343.61548233 316.9263947 C356.1026818 316.93087057 368.58977155 316.94839794 381.07693768 316.9773953 C390.74259252 316.99905708 400.40821661 317.00910143 410.07389545 317.01043582 C415.84004756 317.0114809 421.60609647 317.01732512 427.3722229 317.03525543 C432.80265347 317.05181325 438.23290414 317.05385435 443.66335106 317.04511642 C445.64737622 317.04435008 447.63141135 317.04863506 449.61541176 317.05857468 C469.55835675 317.1525595 486.40729859 315.03979408 501.4140625 300.54296875 C503.375 298.6875 503.375 298.6875 505.375 297.6875 C505.74431641 298.54021484 505.74431641 298.54021484 506.12109375 299.41015625 C512.65101275 311.26979106 526.13719904 316.80203365 538.375 320.6875 C557.25618104 325.31828271 578.02977494 323.86396261 595.20703125 314.64453125 C602.44734509 310.17178497 607.7770295 304.8069382 612.375 297.6875 C612.93445313 298.32816406 613.49390625 298.96882813 614.0703125 299.62890625 C625.0032298 311.42309839 638.26881555 316.843742 654.23849487 317.95677185 C658.36165724 318.04787428 662.4741697 318.05282318 666.59765625 318.015625 C668.11591909 318.01255449 669.63418479 318.01068822 671.15245056 318.00994873 C674.3098355 318.00538767 677.46695941 317.99112781 680.62426758 317.96875 C684.63357024 317.94044736 688.64266929 317.92952997 692.65206242 317.9250679 C696.5297855 317.91986821 700.40745994 317.90538332 704.28515625 317.890625 C705.36403453 317.88780392 705.36403453 317.88780392 706.46470833 317.88492584 C714.570047 317.85752836 722.56894082 317.61971878 730.63304138 316.72210693 C734.42013432 316.6743091 736.99165027 317.90779924 740.29296875 319.6328125 C753.91688483 326.53423341 773.45626915 324.11963738 787.4375 320.125 C802.92721686 314.50739602 813.46671901 302.83267552 820.55883789 288.26611328 C835.15409013 256.29415916 840.80605198 207.15689687 830.28515625 173.109375 C828.12722121 167.36723026 825.96808745 161.98071492 821.3125 157.875 C819.375 154.6875 819.375 154.6875 819.8828125 152.1015625 C820.61610128 149.94515032 821.37408481 147.79704241 822.15112305 145.65600586 C823.46140446 141.69298013 824.09305422 137.73410855 824.51171875 133.58984375 C824.63489471 132.38391571 824.63489471 132.38391571 824.76055908 131.15362549 C825.78827265 119.75465071 825.67290179 108.30575961 825.63574219 96.87060547 C825.62498091 92.93050894 825.63571651 88.99086438 825.6484375 85.05078125 C825.72790508 51.86269741 825.72790508 51.86269741 809.5 23.69140625 C801.93836809 16.60237634 791.89675059 11.37803675 781.375 11.6875 C781.045 11.3575 780.715 11.0275 780.375 10.6875 C778.59029431 10.58456658 776.8014884 10.55228589 775.01382446 10.54705811 C773.85036499 10.54134796 772.68690552 10.53563782 771.4881897 10.52975464 C770.19996307 10.52863678 768.91173645 10.52751892 767.58447266 10.52636719 C766.22287867 10.52174092 764.86128598 10.51671653 763.49969482 10.51132202 C759.78839052 10.49816745 756.07710434 10.49174579 752.36578035 10.48731136 C750.0448396 10.48438229 747.72390381 10.48027754 745.40296555 10.47580719 C738.13554393 10.46211704 730.86813364 10.45246088 723.60070002 10.4486053 C715.22415365 10.44413684 706.84777145 10.42665202 698.47127497 10.3976047 C691.99215224 10.37592181 685.51307543 10.36589732 679.03391683 10.36456418 C675.16751195 10.3635198 671.30126108 10.35769206 667.43489456 10.33974457 C663.78887968 10.32315195 660.1431326 10.32116201 656.4970932 10.32988358 C654.53707415 10.33101009 652.57706356 10.31737471 650.61709595 10.3031311 C641.1871866 10.34720131 632.49330359 11.68390312 624.0625 16.125 C622.85013672 16.76308594 622.85013672 16.76308594 621.61328125 17.4140625 C618.75527303 19.04008463 616.05511164 20.78321015 613.375 22.6875 C612.86066406 21.97787109 612.86066406 21.97787109 612.3359375 21.25390625 C605.3148478 12.38243084 594.52795267 5.05327784 583.375 2.6875 C582.47007812 2.49542969 581.56515625 2.30335937 580.6328125 2.10546875 C576.78835465 1.61223495 573.10032417 1.73926376 569.25 2 C568.54746094 2.03544922 567.84492187 2.07089844 567.12109375 2.10742188 C563.36680646 2.34516975 560.64170514 2.85786472 557.375 4.6875 C556.16263672 4.91566406 556.16263672 4.91566406 554.92578125 5.1484375 C545.15444562 7.21343645 536.12602651 15.78460705 530.625 23.75 C525.14803759 32.85326172 522.86075796 43.14655232 522.375 53.6875 C520.29946352 54.2409764 518.53134036 54.6875 516.375 54.6875 C516.2925 53.635625 516.21 52.58375 516.125 51.5 C514.31994559 37.55410016 508.495088 25.490903 497.375 16.6875 C486.05060057 9.96736297 475.46390158 7.53282562 462.46556091 7.54705811 C461.1726134 7.54260142 461.1726134 7.54260142 459.85354573 7.5380547 C456.98365261 7.52942753 454.11380151 7.52786455 451.24389648 7.52636719 C449.17840995 7.52173473 447.11292427 7.5167095 445.04743958 7.51132202 C439.44791149 7.49823621 433.84839538 7.49176039 428.2488544 7.48731136 C424.74505946 7.48437413 421.24126775 7.48026808 417.73747444 7.47580719 C406.75921343 7.46214158 395.78095985 7.45247065 384.80269092 7.4486053 C372.15931073 7.44412838 359.51603885 7.42659344 346.87269157 7.3976047 C337.08044257 7.37593772 327.28822393 7.36589832 317.49595124 7.36456418 C311.65657985 7.36351964 305.8173104 7.35768692 299.9779644 7.33974457 C294.47938051 7.32317723 288.98097426 7.32115019 283.48237419 7.32988358 C281.47457908 7.33064936 279.46677407 7.32637242 277.45900345 7.31642532 C258.13980425 7.2263958 240.09144095 8.62877708 225.375 22.6875 C218.98343763 30.21076758 214.18549037 39.11456212 212.1875 48.8125 C211.919375 50.09125 211.65125 51.37 211.375 52.6875 C210.715 53.0175 210.055 53.3475 209.375 53.6875 C209.26414062 52.96304688 209.15328125 52.23859375 209.0390625 51.4921875 C206.60551876 41.21404396 198.53081506 33.62964043 190.0625 28 C174.22486451 18.37658661 157.33072077 16.72875841 139.375 20.6875 C138.385 19.388125 138.385 19.388125 137.375 18.0625 C129.36765395 8.49879655 118.03196573 3.34557089 105.8125 1.9375 C95.18750115 1.23709585 85.9413207 3.10694621 76.18774414 7.30737305 C71.53405378 9.29771694 66.8819895 10.74268093 62 12.0625 C43.58984201 17.22768301 26.11128445 26.29218876 15.375 42.6875 C14.34501319 44.67222345 13.33749271 46.66918194 12.375 48.6875 C12.15585938 47.66011719 11.93671875 46.63273437 11.7109375 45.57421875 C8.29181458 30.31285 2.14190412 16.98467515 -11.5625 8.25 C-32.17232422 -3.07900276 -58.57799113 0.20878774 -74.625 17.6875 Z " fill="#FDAFCF" transform="translate(151.625,16.3125)"/>
<path d="M0 0 C5.03625168 0.00379183 10.07248374 0.00239203 15.10873473 -0.00179982 C69.6172523 -0.04554809 69.6172523 -0.04554809 90.03837454 0.40057826 C91.50840736 0.4320185 92.9785364 0.45932228 94.44873297 0.48183894 C106.29162826 0.67636401 116.69694564 2.15117948 125.8946234 10.12857127 C134.69972556 19.74611428 134.34553922 34.48212895 134.25790465 46.70279002 C134.25738409 48.16241017 134.25790932 49.62203103 134.25941527 51.0816505 C134.25932635 54.1163611 134.24906039 57.15080159 134.23080504 60.18545604 C134.20805958 64.04830811 134.20759364 67.91076922 134.21432269 71.77366996 C134.21768437 74.77908288 134.21099244 77.78440883 134.20119345 80.78980517 C134.19738358 82.2133629 134.19617544 83.63693036 134.1977793 85.06049228 C134.20036079 98.75067478 133.25053427 110.98870015 123.7227484 121.52700877 C115.83741661 128.43509858 105.53225508 130.44283745 95.36914122 130.38253856 C94.54856746 130.38565854 93.72799369 130.38877852 92.88255405 130.39199305 C90.15294131 130.39992384 87.42355392 130.39366866 84.69393981 130.38736033 C82.72871327 130.39007242 80.76348775 130.39363458 78.79826415 130.39798045 C73.47383063 130.40708196 68.14947482 130.40356909 62.82503998 130.39722228 C57.24434036 130.39214929 51.66364727 130.39685748 46.08294737 130.39999461 C36.70993925 130.40363107 27.33696267 130.39884418 17.96395934 130.38931346 C7.1417203 130.37843589 -3.68044334 130.38195073 -14.50268054 130.39296627 C-23.80653702 130.40205584 -33.11037086 130.40331606 -42.41423035 130.39808893 C-47.965572 130.3949776 -53.51687828 130.39453673 -59.06821764 130.40116191 C-64.29016636 130.40695881 -69.51201836 130.40289565 -74.73395669 130.3913734 C-76.64547952 130.38873906 -78.55701055 130.38947084 -80.46853006 130.39389873 C-108.76106592 130.45337031 -108.76106592 130.45337031 -119.1835016 121.30435252 C-126.32096318 113.67206693 -128.2122946 105.08630767 -128.26650941 94.8348701 C-128.27147432 94.1186851 -128.27643922 93.4025001 -128.28155458 92.66461253 C-128.29610872 90.30493258 -128.30296791 87.94531991 -128.3085016 85.58560252 C-128.31132898 84.77522721 -128.31415636 83.9648519 -128.31706941 83.12991977 C-128.33203711 78.83902101 -128.34128104 74.54815565 -128.34561098 70.25723338 C-128.35108313 65.84708012 -128.37509141 61.43723753 -128.40358293 57.02718139 C-128.42230473 53.61687937 -128.42742002 50.20665065 -128.42894685 46.7963016 C-128.43195387 45.17176376 -128.43991563 43.54722661 -128.45313203 41.92273974 C-128.54522082 29.73070398 -128.23945966 18.65178614 -119.3866266 9.31607127 C-112.51194512 2.76875558 -105.05326579 0.69826179 -95.68765199 0.62124705 C-94.88170784 0.60358665 -94.07576368 0.58592624 -93.24539697 0.56773067 C-90.54381748 0.5133175 -87.84246835 0.48056406 -85.14053285 0.44888377 C-83.17006901 0.41612099 -81.19961527 0.38274538 -79.22917116 0.34881663 C-52.82274343 -0.06760123 -26.40906783 -0.02214741 0 0 Z M-61.1053766 41.12857127 C-61.1053766 42.44857127 -61.1053766 43.76857127 -61.1053766 45.12857127 C-56.64009176 45.32156983 -52.17452829 45.50017049 -47.7081598 45.66568065 C-46.19010073 45.72393683 -44.67218498 45.78606609 -43.15444887 45.85220408 C-40.96778414 45.94680905 -38.7809757 46.02728993 -36.59365785 46.10513377 C-34.62199647 46.18368602 -34.62199647 46.18368602 -32.61050355 46.26382518 C-29.24230223 46.13385488 -27.10162934 45.60527784 -24.1053766 44.12857127 C-24.1053766 43.13857127 -24.1053766 42.14857127 -24.1053766 41.12857127 C-30.84939595 40.22936869 -37.4990007 40.01846468 -44.2928766 40.00357127 C-45.1478473 39.99905955 -46.00281801 39.99454783 -46.88369691 39.9898994 C-51.73025918 40.00119236 -56.32676462 40.3138147 -61.1053766 41.12857127 Z M36.8321234 40.62857127 C35.5327484 40.79357127 34.2333734 40.95857127 32.8946234 41.12857127 C33.2246234 42.44857127 33.5546234 43.76857127 33.8946234 45.12857127 C34.91934752 45.12857127 35.94407164 45.12857127 36.99984801 45.12857127 C47.63143981 45.12857127 58.2630316 45.12857127 68.8946234 45.12857127 C69.2246234 43.80857127 69.5546234 42.48857127 69.8946234 41.12857127 C66.91560275 40.95886104 63.93645084 40.79273377 60.9571234 40.62857127 C60.12632262 40.58087596 59.29552184 40.53318065 58.43954527 40.48404002 C51.23510497 40.09158024 44.0101387 39.71707727 36.8321234 40.62857127 Z M-61.1053766 79.12857127 C-61.1053766 80.44857127 -61.1053766 81.76857127 -61.1053766 83.12857127 C-57.13042062 84.06940584 -53.42372429 84.25747058 -49.34365785 84.26138377 C-47.41876527 84.26331737 -47.41876527 84.26331737 -45.45498598 84.26529002 C-44.79264955 84.2631953 -44.13031312 84.26110057 -43.4479059 84.25894237 C-41.41373271 84.25356031 -39.37977761 84.25891717 -37.34561098 84.26529002 C-36.06621644 84.26400096 -34.78682191 84.2627119 -33.46865785 84.26138377 C-32.29601381 84.26025584 -31.12336977 84.25912791 -29.91519105 84.2579658 C-27.15239946 84.32108043 -27.15239946 84.32108043 -25.1053766 83.12857127 C-25.1053766 81.80857127 -25.1053766 80.48857127 -25.1053766 79.12857127 C-36.9853766 79.12857127 -48.8653766 79.12857127 -61.1053766 79.12857127 Z M33.8946234 79.12857127 C33.5646234 80.44857127 33.2346234 81.76857127 32.8946234 83.12857127 C37.26196636 85.31224275 43.16048527 84.31442031 48.01547301 84.31387401 C50.18828206 84.31605238 52.36057663 84.33418878 54.53329527 84.35318065 C55.92066333 84.35611636 57.3080338 84.35809996 58.69540465 84.35904002 C59.95522154 84.36314891 61.21503844 84.3672578 62.5130316 84.37149119 C65.75979188 84.13825702 67.98199981 83.52886441 70.8946234 82.12857127 C70.3996234 80.64357127 70.3996234 80.64357127 69.8946234 79.12857127 C58.0146234 79.12857127 46.1346234 79.12857127 33.8946234 79.12857127 Z " fill="#FEB0CF" transform="translate(512.1053766012192,184.87142872810364)"/>
<path d="M0 0 C1.29105558 -0.00467997 1.29105558 -0.00467997 2.6081931 -0.00945449 C5.47366357 -0.01739048 8.33891967 -0.011128 11.20439148 -0.00482178 C13.26651635 -0.00753365 15.32864025 -0.01109569 17.39076233 -0.01544189 C22.97971614 -0.02454647 28.56859597 -0.02102912 34.15755105 -0.01468372 C40.01538555 -0.00961171 45.87321382 -0.01431871 51.73104858 -0.01745605 C61.57064447 -0.02109305 71.41021031 -0.01630447 81.24980164 -0.0067749 C92.60938279 0.00410004 103.96889208 0.00058995 115.32847148 -0.01042771 C125.09433521 -0.01951899 134.86017738 -0.02077659 144.62604398 -0.01555037 C150.45296129 -0.01243963 156.2798449 -0.0119965 162.10676003 -0.01862335 C167.5888961 -0.02442263 173.07094007 -0.02035276 178.55306625 -0.00883484 C180.55931 -0.00620165 182.56556156 -0.00693029 184.57180214 -0.01136017 C212.71554938 -0.06774846 212.71554938 -0.06774846 221.72660828 7.44146729 C227.29675637 14.03769529 228.79235057 19.43164199 228.48051453 28.13287354 C227.62821826 35.15333453 224.47148869 39.42125148 219.27348328 44.02740479 C213.57212378 47.24723731 207.26750511 47.54310703 200.88285828 47.44927979 C200.13951233 47.44644989 199.39616638 47.44362 198.6302948 47.44070435 C196.2872261 47.42962885 193.9445588 47.40454956 191.60160828 47.37896729 C190.00005135 47.3689211 188.39848835 47.35979813 186.79692078 47.35162354 C182.89833178 47.32973119 179.00003776 47.29529115 175.10160828 47.25396729 C175.10160828 47.91396729 175.10160828 48.57396729 175.10160828 49.25396729 C159.92160828 49.25396729 144.74160828 49.25396729 129.10160828 49.25396729 C128.77160828 48.59396729 128.44160828 47.93396729 128.10160828 47.25396729 C128.10160828 48.24396729 128.10160828 49.23396729 128.10160828 50.25396729 C143.94160828 49.92396729 159.78160828 49.59396729 176.10160828 49.25396729 C176.10160828 48.92396729 176.10160828 48.59396729 176.10160828 48.25396729 C186.00160828 48.25396729 195.90160828 48.25396729 206.10160828 48.25396729 C206.10160828 48.58396729 206.10160828 48.91396729 206.10160828 49.25396729 C207.2591864 49.4357251 208.41676453 49.61748291 209.60942078 49.80474854 C211.14856735 50.05814462 212.6876253 50.31207947 214.22660828 50.56646729 C215.36742859 50.74339111 215.36742859 50.74339111 216.53129578 50.92388916 C223.32352305 52.06568599 229.14820626 54.30056527 234.10160828 59.25396729 C241.15160034 70.17534228 241.44709701 82.03039068 241.41410828 94.69146729 C241.43022156 95.92445557 241.44633484 97.15744385 241.4629364 98.42779541 C241.46897114 109.85155971 240.46991881 120.80726508 232.10160828 129.25396729 C225.29405144 135.37294366 218.16874437 136.67671046 209.16410828 136.50787354 C204.51417872 136.12235642 200.42158244 134.98195695 196.10160828 133.25396729 C195.45320984 132.99873291 194.8048114 132.74349854 194.13676453 132.48052979 C188.72959555 129.90118003 185.92505016 125.39869528 183.10160828 120.25396729 C182.14526957 117.38495117 181.91072923 115.31762085 181.78520203 112.32427979 C181.72236023 110.88375244 181.72236023 110.88375244 181.6582489 109.41412354 C181.6189325 108.41252197 181.57961609 107.41092041 181.53910828 106.37896729 C181.49592468 105.3851001 181.45274109 104.39123291 181.4082489 103.36724854 C181.22356412 98.98758082 181.10160828 94.63954251 181.10160828 90.25396729 C163.61160828 90.25396729 146.12160828 90.25396729 128.10160828 90.25396729 C128.10160828 92.23396729 128.10160828 94.21396729 128.10160828 96.25396729 C128.76160828 96.58396729 129.42160828 96.91396729 130.10160828 97.25396729 C129.44160828 97.25396729 128.78160828 97.25396729 128.10160828 97.25396729 C128.2794989 98.40123291 128.45738953 99.54849854 128.64067078 100.73052979 C129.82223989 110.28820447 128.6189008 121.80714164 123.78910828 130.23052979 C119.55492747 135.30762621 113.60834089 138.37824206 107.10160828 139.25396729 C96.12298177 139.83237517 86.95627121 139.41765787 76.85160828 134.75396729 C73.28847824 131.51475816 71.51234508 127.90747882 69.39848328 123.61724854 C68.32417513 121.12817818 68.32417513 121.12817818 66.10160828 120.25396729 C66.59660828 118.76896729 66.59660828 118.76896729 67.10160828 117.25396729 C67.25190816 115.19033738 67.35005276 113.12272814 67.41801453 111.05474854 C67.45990906 109.84625244 67.50180359 108.63775635 67.54496765 107.39263916 C67.58428406 106.13000244 67.62360046 104.86736572 67.66410828 103.56646729 C67.72888367 101.65510986 67.72888367 101.65510986 67.79496765 99.70513916 C67.90115688 96.55485877 68.0032036 93.4044989 68.10160828 90.25396729 C60.87505335 90.22867555 53.64850978 90.21112509 46.42192078 90.19903564 C43.9619555 90.1939974 41.50199323 90.18716669 39.04203796 90.17852783 C35.51240803 90.16644006 31.98281758 90.16073399 28.45317078 90.15631104 C26.79531052 90.14856911 26.79531052 90.14856911 25.10395813 90.14067078 C24.08305084 90.14059525 23.06214355 90.14051971 22.01029968 90.14044189 C21.10873138 90.13822128 20.20716309 90.13600067 19.27827454 90.13371277 C17.0544708 90.11203878 17.0544708 90.11203878 15.10160828 91.25396729 C15.08702576 91.8983374 15.07244324 92.54270752 15.05741882 93.206604 C14.98205353 96.18126928 14.88569198 99.15491824 14.78910828 102.12896729 C14.76654968 103.14217041 14.74399109 104.15537354 14.7207489 105.19927979 C14.43557425 113.28786984 13.37060465 120.60982159 9.03910828 127.56646729 C0.99548147 134.92553011 -7.87704704 136.63922419 -18.47651672 136.53131104 C-26.81689891 135.85532116 -34.41058969 132.68639098 -39.89839172 126.25396729 C-47.92147617 115.22853363 -46.25886893 99.19992445 -45.89839172 86.25396729 C-45.86874329 85.01517822 -45.83909485 83.77638916 -45.80854797 82.50006104 C-45.39313037 73.91814132 -43.65075178 65.20047314 -37.64448547 58.63287354 C-29.02048035 51.82241759 -20.01607113 50.09131592 -9.32270813 50.14044189 C-8.06318329 50.14022285 -8.06318329 50.14022285 -6.7782135 50.13999939 C-4.01876693 50.14069284 -1.25938892 50.14845855 1.50004578 50.15631104 C3.41961124 50.15817723 5.33917718 50.15960018 7.25874329 50.16059875 C12.29915188 50.16440804 17.33953143 50.17422472 22.37992859 50.18530273 C27.52803657 50.19555106 32.67614927 50.2001037 37.82426453 50.20513916 C47.91672517 50.21584845 58.0091643 50.23290574 68.10160828 50.25396729 C68.10160828 49.26396729 68.10160828 48.27396729 68.10160828 47.25396729 C63.15160828 47.74896729 63.15160828 47.74896729 58.10160828 48.25396729 C58.10160828 48.58396729 58.10160828 48.91396729 58.10160828 49.25396729 C34.67160828 49.25396729 11.24160828 49.25396729 -12.89839172 49.25396729 C-12.89839172 48.59396729 -12.89839172 47.93396729 -12.89839172 47.25396729 C-13.85938782 47.06834229 -13.85938782 47.06834229 -14.83979797 46.87896729 C-22.00948317 45.16935532 -25.78167559 42.34717497 -29.89839172 36.25396729 C-33.25249569 30.20049883 -33.26565783 24.36803084 -31.74604797 17.74615479 C-29.49743617 11.13502883 -25.04552896 6.86886177 -19.21870422 3.26177979 C-12.88869401 0.51238141 -6.79664811 -0.03837443 0 0 Z M-11.89839172 47.25396729 C-11.89839172 47.58396729 -11.89839172 47.91396729 -11.89839172 48.25396729 C-9.91839172 48.25396729 -7.93839172 48.25396729 -5.89839172 48.25396729 C-5.89839172 47.92396729 -5.89839172 47.59396729 -5.89839172 47.25396729 C-7.87839172 47.25396729 -9.85839172 47.25396729 -11.89839172 47.25396729 Z M6.10160828 47.25396729 C6.10160828 47.58396729 6.10160828 47.91396729 6.10160828 48.25396729 C8.74160828 48.25396729 11.38160828 48.25396729 14.10160828 48.25396729 C14.10160828 47.92396729 14.10160828 47.59396729 14.10160828 47.25396729 C11.46160828 47.25396729 8.82160828 47.25396729 6.10160828 47.25396729 Z " fill="#FEB0CF" transform="translate(417.8983917236328,44.74603271484375)"/>
<path d="M0 0 C0.8037355 -0.00570007 1.60747101 -0.01140015 2.43556213 -0.01727295 C4.13256522 -0.02670172 5.82958644 -0.03324848 7.52661133 -0.03710938 C10.11637329 -0.04682797 12.70534554 -0.07787583 15.29492188 -0.109375 C16.94660989 -0.11590448 18.59830355 -0.12115517 20.25 -0.125 C21.02097519 -0.1373468 21.79195038 -0.1496936 22.58628845 -0.16241455 C27.13325557 -0.14365677 30.08748349 0.36149568 33.69140625 3.203125 C35.29472069 6.40975388 35.17792838 9.72415853 34.69140625 13.203125 C32.00656812 17.70981758 32.00656812 17.70981758 29.04272461 18.8215332 C25.6409091 19.37360855 22.25715159 19.3658492 18.8203125 19.37109375 C18.06096909 19.37442215 17.30162567 19.37775055 16.51927185 19.38117981 C14.9164185 19.38623249 13.31355467 19.38858865 11.71069336 19.38842773 C9.2659362 19.39061424 6.82163053 19.4087872 4.37695312 19.42773438 C2.81640779 19.43066869 1.25586031 19.43265323 -0.3046875 19.43359375 C-1.03191513 19.44077927 -1.75914276 19.44796478 -2.50840759 19.45536804 C-6.54317759 19.43731042 -9.71272579 19.0877191 -13.30859375 17.203125 C-15.92162385 13.84351488 -15.66918266 10.31383855 -15.30859375 6.203125 C-14.05859375 3.328125 -14.05859375 3.328125 -12.30859375 1.203125 C-8.29314561 -0.1314663 -4.18838762 0.02302736 0 0 Z " fill="#FEB1D1" transform="translate(562.30859375,160.796875)"/>
<path d="M0 0 C0.78295441 -0.0033284 1.56590881 -0.0066568 2.37258911 -0.01008606 C4.02849745 -0.01514644 5.68441597 -0.01749466 7.34033203 -0.01733398 C9.86638316 -0.01951705 12.39199507 -0.03767242 14.91796875 -0.05664062 C16.52864434 -0.05957546 18.13932201 -0.06155965 19.75 -0.0625 C20.50223846 -0.06968552 21.25447693 -0.07687103 22.0295105 -0.08427429 C26.1218757 -0.06655805 29.36301168 0.24305562 33.0078125 2.16796875 C35.62015506 5.52669489 35.44032553 9.05909496 35.0078125 13.16796875 C32.24835392 17.70136499 32.24835392 17.70136499 29.35913086 18.78808594 C25.95829361 19.33753073 22.57275253 19.3510695 19.13671875 19.37109375 C17.99770363 19.37964386 17.99770363 19.37964386 16.8356781 19.3883667 C15.23283268 19.39779284 13.62996809 19.40434118 12.02709961 19.40820312 C9.58217512 19.4179216 7.13808726 19.4489715 4.69335938 19.48046875 C3.13281747 19.48699834 1.57226958 19.49224899 0.01171875 19.49609375 C-1.0791227 19.51461395 -1.0791227 19.51461395 -2.19200134 19.5335083 C-6.63566273 19.51410892 -9.46281261 18.91392018 -12.9921875 16.16796875 C-14.7118141 12.72871555 -14.37438714 8.93632313 -13.9921875 5.16796875 C-10.92771121 -0.66912894 -5.91924338 0.00870975 0 0 Z " fill="#FEB1D1" transform="translate(447.9921875,160.83203125)"/>
<path d="M0 0 C5.94481181 -0.04934399 11.88950509 -0.08569282 17.83447266 -0.10986328 C19.85793127 -0.11993671 21.88137528 -0.13359595 23.90478516 -0.15087891 C26.80895589 -0.17506847 29.71293461 -0.18646949 32.6171875 -0.1953125 C33.52556366 -0.20563507 34.43393982 -0.21595764 35.36984253 -0.22659302 C36.21056305 -0.22674408 37.05128357 -0.22689514 37.91748047 -0.22705078 C39.03000687 -0.23371262 39.03000687 -0.23371262 40.16500854 -0.24050903 C42 0 42 0 44 2 C45.12031663 6.28752755 45.46570572 9.88230628 43.75 14 C42 16 42 16 39 17 C38.67 17.66 38.34 18.32 38 19 C37.67 18.67 37.34 18.34 37 18 C37 18.33 37 18.66 37 19 C30.60293218 20.14070396 24.29928542 20.18358522 17.8125 20.1875 C16.19311523 20.20586914 16.19311523 20.20586914 14.54101562 20.22460938 C13.50267578 20.22654297 12.46433594 20.22847656 11.39453125 20.23046875 C9.98457886 20.23663208 9.98457886 20.23663208 8.54614258 20.24291992 C3.83540009 19.79348193 0.98488742 17.5818649 -2 14 C-3.5 11.25 -3.5 11.25 -4 8 C-3.17382812 5.93261719 -3.17382812 5.93261719 -2.03125 3.796875 C-1.46760742 2.72711426 -1.46760742 2.72711426 -0.89257812 1.63574219 C-0.59802734 1.09594727 -0.30347656 0.55615234 0 0 Z M7 17 C7 17.33 7 17.66 7 18 C11.95 18 16.9 18 22 18 C22 17.67 22 17.34 22 17 C17.05 17 12.1 17 7 17 Z M23 17 C23 17.33 23 17.66 23 18 C24.65 18 26.3 18 28 18 C28 17.67 28 17.34 28 17 C26.35 17 24.7 17 23 17 Z " fill="#FEB0D0" transform="translate(551,139)"/>
<path d="M0 0 C0.79849365 0.00950684 1.5969873 0.01901367 2.41967773 0.02880859 C4.6640625 0.1328125 4.6640625 0.1328125 8.375 0.875 C10.61039972 3.37313456 11.2867378 4.90893007 11.58984375 8.2265625 C11.45255859 9.35191406 11.45255859 9.35191406 11.3125 10.5 C11.23902344 11.25539062 11.16554688 12.01078125 11.08984375 12.7890625 C10.0885611 15.71083809 9.08093629 16.35743687 6.375 17.875 C3.44788598 18.17990771 0.73910108 18.31935983 -2.1875 18.30859375 C-3.01580322 18.3138356 -3.84410645 18.31907745 -4.69750977 18.32447815 C-6.44578939 18.33089112 -8.19411221 18.32957072 -9.94238281 18.32104492 C-12.61601552 18.31252862 -15.28751547 18.34131413 -17.9609375 18.37304688 C-19.66145769 18.37465888 -21.36198167 18.37408136 -23.0625 18.37109375 C-23.86051025 18.38232773 -24.65852051 18.39356171 -25.48071289 18.40513611 C-29.09172382 18.35982335 -31.1862531 18.20920715 -34.1015625 15.98852539 C-35.95310668 13.41980456 -36.55102837 12.05578013 -36.625 8.875 C-34.29166667 2.20833333 -34.29166667 2.20833333 -31.625 0.875 C-21.22287966 -0.36651245 -10.45692535 -0.33241908 0 0 Z " fill="#FEB1D0" transform="translate(470.625,138.125)"/>
<path d="M0 0 C1.32 0 2.64 0 4 0 C3.95456055 0.87736816 3.95456055 0.87736816 3.90820312 1.77246094 C3.77108038 4.43158743 3.6355244 7.09079158 3.5 9.75 C3.45230469 10.67039063 3.40460938 11.59078125 3.35546875 12.5390625 C3.31035156 13.42851562 3.26523437 14.31796875 3.21875 15.234375 C3.17685547 16.05131836 3.13496094 16.86826172 3.09179688 17.70996094 C3.00780937 19.80518124 3 21.90309704 3 24 C2.01 24 1.02 24 0 24 C0 23.01 0 22.02 0 21 C-0.66 21 -1.32 21 -2 21 C-2 20.34 -2 19.68 -2 19 C-3.32 19 -4.64 19 -6 19 C-6 18.01 -6 17.02 -6 16 C-5.401875 15.484375 -4.80375 14.96875 -4.1875 14.4375 C-0.99002737 10.87460192 0.12932087 6.67074601 1 2 C0.67 1.34 0.34 0.68 0 0 Z " fill="#FDB2D4" transform="translate(361,207)"/>
<path d="M0 0 C7.26 0 14.52 0 22 0 C21.67 0.66 21.34 1.32 21 2 C21.66 2.66 22.32 3.32 23 4 C16.17742153 5.4619811 8.8164713 5.4587779 2 4 C1.34 2.68 0.68 1.36 0 0 Z M9 2 C9 2.33 9 2.66 9 3 C10.65 3 12.3 3 14 3 C14 2.67 14 2.34 14 2 C12.35 2 10.7 2 9 2 Z " fill="#FEB4D3" transform="translate(565,154)"/>
<path d="M0 0 C0.66 0 1.32 0 2 0 C1.67 2.64 1.34 5.28 1 8 C1.66 8.33 2.32 8.66 3 9 C2.34 9 1.68 9 1 9 C1.185625 10.093125 1.37125 11.18625 1.5625 12.3125 C2.24688222 17.60695693 1.63030726 22.72481308 1 28 C0.34 28 -0.32 28 -1 28 C-1.02891949 23.70834738 -1.04677118 19.41671964 -1.0625 15.125 C-1.07087891 13.90167969 -1.07925781 12.67835938 -1.08789062 11.41796875 C-1.09111328 10.25136719 -1.09433594 9.08476562 -1.09765625 7.8828125 C-1.10289307 6.80402832 -1.10812988 5.72524414 -1.11352539 4.61376953 C-1 2 -1 2 0 0 Z " fill="#FEB7D9" transform="translate(545,133)"/>
<path d="M0 0 C7.59 0 15.18 0 23 0 C23 0.99 23 1.98 23 3 C15.08 3 7.16 3 -1 3 C-0.67 2.01 -0.34 1.02 0 0 Z " fill="#FEB9D8" transform="translate(825,46)"/>
<path d="M0 0 C4.29 0 8.58 0 13 0 C13.33 0.66 13.66 1.32 14 2 C11.11584117 3.44207941 8.58278472 3.09394887 5.375 3.0625 C4.18648438 3.05347656 2.99796875 3.04445313 1.7734375 3.03515625 C0.85820312 3.02355469 -0.05703125 3.01195312 -1 3 C-0.67 2.01 -0.34 1.02 0 0 Z " fill="#FEB9D9" transform="translate(267,261)"/>
<path d="M0 0 C9.9 0 19.8 0 30 0 C30 0.33 30 0.66 30 1 C20.1 1 10.2 1 0 1 C0 0.67 0 0.34 0 0 Z " fill="#FFB4DF" transform="translate(833,134)"/>
<path d="M0 0 C9.57 0 19.14 0 29 0 C29 0.33 29 0.66 29 1 C19.43 1 9.86 1 0 1 C0 0.67 0 0.34 0 0 Z " fill="#FFAFD0" transform="translate(834,132)"/>
<path d="M0 0 C0.66 0 1.32 0 2 0 C2 5.61 2 11.22 2 17 C1.67 17 1.34 17 1 17 C0.63917123 14.35491639 0.28604648 11.70920453 -0.0625 9.0625 C-0.16626953 8.30775391 -0.27003906 7.55300781 -0.37695312 6.77539062 C-0.62665638 4.85525872 -0.81790281 2.92771856 -1 1 C-0.67 0.67 -0.34 0.34 0 0 Z " fill="#FDBAD7" transform="translate(288,130)"/>
<path d="M0 0 C1.98 0.495 1.98 0.495 4 1 C3.01 1.495 3.01 1.495 2 2 C2.33 2.66 2.66 3.32 3 4 C3.039992 5.99960012 3.04346799 8.00047242 3 10 C2.67 9.34 2.34 8.68 2 8 C1.34 8 0.68 8 0 8 C-1.09658936 4.71023192 -0.79953138 3.28696233 0 0 Z " fill="#FEB9D6" transform="translate(362,286)"/>
<path d="M0 0 C0 0.33 0 0.66 0 1 C-7.02618978 2.5056121 -13.89452919 1.64057643 -21 1 C-21 0.67 -21 0.34 -21 0 C-13.93186891 -1.44987304 -7.06813109 -1.44987304 0 0 Z " fill="#FFCBDE" transform="translate(588,157)"/>
<path d="M0 0 C7.92 0 15.84 0 24 0 C24 0.33 24 0.66 24 1 C16.08 1 8.16 1 0 1 C0 0.67 0 0.34 0 0 Z " fill="#FF9DD6" transform="translate(864,134)"/>
<path d="M0 0 C6.6 0.33 13.2 0.66 20 1 C20 1.33 20 1.66 20 2 C13.4 2 6.8 2 0 2 C0 1.34 0 0.68 0 0 Z " fill="#FFB1DD" transform="translate(438,156)"/>
<path d="M0 0 C0.99 0 1.98 0 3 0 C3.33 0.99 3.66 1.98 4 3 C2 5 2 5 -1.125 5.125 C-2.548125 5.063125 -2.548125 5.063125 -4 5 C-3.34 4.360625 -2.68 3.72125 -2 3.0625 C0.11602431 1.35917681 0.11602431 1.35917681 0 0 Z " fill="#FEBFDE" transform="translate(578,228)"/>
<path d="M0 0 C0.33 0.99 0.66 1.98 1 3 C0 4 0 4 -3.5625 4.0625 C-4.696875 4.041875 -5.83125 4.02125 -7 4 C-6.01 3.67 -5.02 3.34 -4 3 C-3.67 2.34 -3.34 1.68 -3 1 C-2.01 0.67 -1.02 0.34 0 0 Z " fill="#FEBBD6" transform="translate(487,229)"/>
<path d="M0 0 C3.63 0 7.26 0 11 0 C11 0.33 11 0.66 11 1 C9.54364629 1.22174933 8.08477044 1.42698698 6.625 1.625 C5.40683594 1.79902344 5.40683594 1.79902344 4.1640625 1.9765625 C3.44992187 1.98429688 2.73578125 1.99203125 2 2 C1.34 1.34 0.68 0.68 0 0 Z " fill="#FFD5E0" transform="translate(886,132)"/>
<path d="M0 0 C2.64 0 5.28 0 8 0 C8 0.33 8 0.66 8 1 C5.36 1 2.72 1 0 1 C0 0.67 0 0.34 0 0 Z " fill="#FFAECE" transform="translate(464,157)"/>
<path d="M0 0 C2.64 0 5.28 0 8 0 C8 0.33 8 0.66 8 1 C5.36 1 2.72 1 0 1 C0 0.67 0 0.34 0 0 Z " fill="#FFC4D4" transform="translate(477,93)"/>
<path d="M0 0 C2.475 0.495 2.475 0.495 5 1 C3.68 1.33 2.36 1.66 1 2 C0.67 1.34 0.34 0.68 0 0 Z " fill="#FFDBF0" transform="translate(881,179)"/>
<path d="M0 0 C0.33 0 0.66 0 1 0 C1 1.98 1 3.96 1 6 C0.67 6 0.34 6 0 6 C0 4.02 0 2.04 0 0 Z " fill="#FFCDFF" transform="translate(484,151)"/>
<path d="M0 0 C1.98 0 3.96 0 6 0 C6 0.33 6 0.66 6 1 C4.02 1 2.04 1 0 1 C0 0.67 0 0.34 0 0 Z " fill="#FFC6F0" transform="translate(848,28)"/>
<path d="M0 0 C1.65 0 3.3 0 5 0 C5 0.33 5 0.66 5 1 C3.35 1 1.7 1 0 1 C0 0.67 0 0.34 0 0 Z " fill="#FFCBFF" transform="translate(224,348)"/>
<path d="M0 0 C1.65 0 3.3 0 5 0 C5 0.33 5 0.66 5 1 C3.35 1 1.7 1 0 1 C0 0.67 0 0.34 0 0 Z " fill="#FFB2FF" transform="translate(472,316)"/>
<path d="M0 0 C1.65 0 3.3 0 5 0 C5 0.33 5 0.66 5 1 C3.35 1 1.7 1 0 1 C0 0.67 0 0.34 0 0 Z " fill="#FFE5FF" transform="translate(272,316)"/>
<path d="M0 0 C1.65 0 3.3 0 5 0 C5 0.33 5 0.66 5 1 C3.35 1 1.7 1 0 1 C0 0.67 0 0.34 0 0 Z " fill="#FFCBFF" transform="translate(866,180)"/>
<path d="M0 0 C1.98 0.99 1.98 0.99 4 2 C2.68 1.67 1.36 1.34 0 1 C0 0.67 0 0.34 0 0 Z " fill="#FFE5FF" transform="translate(872,179)"/>
<path d="M0 0 C1.65 0 3.3 0 5 0 C5 0.33 5 0.66 5 1 C3.35 1 1.7 1 0 1 C0 0.67 0 0.34 0 0 Z " fill="#FF9DD0" transform="translate(880,132)"/>
<path d="M0 0 C1.65 0 3.3 0 5 0 C5 0.33 5 0.66 5 1 C3.35 1 1.7 1 0 1 C0 0.67 0 0.34 0 0 Z " fill="#FFE5E5" transform="translate(888,98)"/>
<path d="M0 0 C1.98 0.99 1.98 0.99 4 2 C2.68 2 1.36 2 0 2 C0 1.34 0 0.68 0 0 Z " fill="#FFCAE3" transform="translate(860,97)"/>
<path d="M0 0 C1.65 0 3.3 0 5 0 C5 0.33 5 0.66 5 1 C3.35 1 1.7 1 0 1 C0 0.67 0 0.34 0 0 Z " fill="#FFCBFF" transform="translate(888,28)"/>
<path d="M0 0 C1.65 0 3.3 0 5 0 C5 0.33 5 0.66 5 1 C3.35 1 1.7 1 0 1 C0 0.67 0 0.34 0 0 Z " fill="#FFE5FF" transform="translate(800,28)"/>
<path d="M0 0 C4 1 4 1 4 1 Z " fill="#FFBFFF" transform="translate(867,349)"/>
<path d="M0 0 C4 1 4 1 4 1 Z " fill="#FFB9D9" transform="translate(99,341)"/>
<path d="M0 0 C4 1 4 1 4 1 Z " fill="#FFFFFF" transform="translate(824,317)"/>
<path d="M0 0 C4 1 4 1 4 1 Z " fill="#FFB0DD" transform="translate(803,316)"/>
<path d="M0 0 C4 1 4 1 4 1 Z " fill="#FFDFFF" transform="translate(585,316)"/>
<path d="M0 0 C1 4 1 4 1 4 Z " fill="#FFA4EF" transform="translate(769,274)"/>
<path d="M0 0 C0.99 0.33 1.98 0.66 3 1 C2.01 1 1.02 1 0 1 C0 0.67 0 0.34 0 0 Z " fill="#FF89E9" transform="translate(843,267)"/>
<path d="M0 0 C4 1 4 1 4 1 Z " fill="#FFC9FF" transform="translate(691,258)"/>
<path d="M0 0 C1 4 1 4 1 4 Z " fill="#FFBFFF" transform="translate(769,250)"/>
<path d="M0 0 C0.66 0 1.32 0 2 0 C2 0.66 2 1.32 2 2 C1.34 2 0.68 2 0 2 C0 1.34 0 0.68 0 0 Z " fill="#FEC7DF" transform="translate(362,204)"/>
<path d="M0 0 C4 1 4 1 4 1 Z " fill="#FFDFFF" transform="translate(906,180)"/>
<path d="M0 0 C4 1 4 1 4 1 Z " fill="#FF94D4" transform="translate(459,157)"/>
<path d="M0 0 C1 4 1 4 1 4 Z " fill="#FFBFFF" transform="translate(484,138)"/>
<path d="M0 0 C4 1 4 1 4 1 Z " fill="#FFDFFF" transform="translate(868,98)"/>
<path d="M0 0 C4 1 4 1 4 1 Z " fill="#FFC9E9" transform="translate(836,98)"/>
<path d="M0 0 C4 1 4 1 4 1 Z " fill="#FFFFFF" transform="translate(627,92)"/>
<path d="M0 0 C4 1 4 1 4 1 Z " fill="#FFBFDF" transform="translate(788,29)"/>
<path d="M0 0 C4 1 4 1 4 1 Z " fill="#FF9DDD" transform="translate(100,21)"/>
<path d="M0 0 C4 1 4 1 4 1 Z " fill="#FF9FFF" transform="translate(729,20)"/>
<path d="M0 0 C3 1 3 1 3 1 Z " fill="#FFD4FF" transform="translate(804,349)"/>
<path d="M0 0 C3 1 3 1 3 1 Z " fill="#FFFFFF" transform="translate(596,316)"/>
<path d="M0 0 C3 1 3 1 3 1 Z " fill="#FFD4FF" transform="translate(592,316)"/>
<path d="M0 0 C3 1 3 1 3 1 Z " fill="#FFFFFF" transform="translate(266,316)"/>
<path d="M0 0 C3 1 3 1 3 1 Z " fill="#FFFFFF" transform="translate(256,316)"/>
<path d="M0 0 C3 1 3 1 3 1 Z " fill="#FFA9FF" transform="translate(232,315)"/>
<path d="" fill="#FFC6C6" transform="translate(0,0)"/>
<path d="" fill="#FFB8E2" transform="translate(0,0)"/>
<path d="M0 0 C3 1 3 1 3 1 Z " fill="#FFD4FF" transform="translate(262,257)"/>
<path d="M0 0 C3 1 3 1 3 1 Z " fill="#FFD4FF" transform="translate(258,257)"/>
<path d="M0 0 C3 1 3 1 3 1 Z " fill="#FFA9FF" transform="translate(254,257)"/>
<path d="M0 0 C3 1 3 1 3 1 Z " fill="#FFD4FF" transform="translate(410,184)"/>
<path d="M0 0 C3 1 3 1 3 1 Z " fill="#FFFFFF" transform="translate(637,181)"/>
<path d="M0 0 C3 1 3 1 3 1 Z " fill="#FFE9E9" transform="translate(922,180)"/>
<path d="" fill="#FFD4FF" transform="translate(0,0)"/>
<path d="M0 0 C3 1 3 1 3 1 Z " fill="#FFD4FF" transform="translate(572,159)"/>
<path d="M0 0 C3 1 3 1 3 1 Z " fill="#FFB8FF" transform="translate(460,159)"/>
<path d="M0 0 C3 1 3 1 3 1 Z " fill="#FFA9FF" transform="translate(450,159)"/>
<path d="M0 0 C3 1 3 1 3 1 Z " fill="#FFD4FF" transform="translate(582,137)"/>
<path d="M0 0 C3 1 3 1 3 1 Z " fill="#FFD4FF" transform="translate(574,137)"/>
<path d="M0 0 C3 1 3 1 3 1 Z " fill="#FFD4FF" transform="translate(566,137)"/>
<path d="M0 0 C3 1 3 1 3 1 Z " fill="#FFD4FF" transform="translate(848,98)"/>
<path d="M0 0 C3 1 3 1 3 1 Z " fill="#FFFFFF" transform="translate(305,54)"/>
<path d="M0 0 C3 1 3 1 3 1 Z " fill="#FFD4FF" transform="translate(834,28)"/>
<path d="M0 0 C3 1 3 1 3 1 Z " fill="#FFFFFF" transform="translate(104,20)"/>
<path d="M0 0 C2 1 2 1 2 1 Z " fill="#FFBFFF" transform="translate(680,349)"/>
<path d="M0 0 C2 1 2 1 2 1 Z " fill="#FFBFFF" transform="translate(549,349)"/>
<path d="M0 0 C2 1 2 1 2 1 Z " fill="#FFBFFF" transform="translate(445,349)"/>
<path d="M0 0 C2 1 2 1 2 1 Z " fill="#FFDFDF" transform="translate(300,349)"/>
<path d="M0 0 C2 1 2 1 2 1 Z " fill="#FFFFFF" transform="translate(245,349)"/>
<path d="M0 0 C2 1 2 1 2 1 Z " fill="#FFBFFF" transform="translate(240,349)"/>
<path d="M0 0 C2 1 2 1 2 1 Z " fill="#FFBFFF" transform="translate(937,334)"/>
<path d="M0 0 C2 1 2 1 2 1 Z " fill="#FFFFFF" transform="translate(896,317)"/>
<path d="M0 0 C2 1 2 1 2 1 Z " fill="#FFFFFF" transform="translate(851,317)"/>
<path d="M0 0 C2 1 2 1 2 1 Z " fill="#FFFFFF" transform="translate(608,316)"/>
<path d="M0 0 C2 1 2 1 2 1 Z " fill="#FF7FFF" transform="translate(576,316)"/>
<path d="M0 0 C2 1 2 1 2 1 Z " fill="#FFFFFF" transform="translate(563,316)"/>
<path d="M0 0 C2 1 2 1 2 1 Z " fill="#FFFFFF" transform="translate(560,316)"/>
<path d="M0 0 C2 1 2 1 2 1 Z " fill="#FFFFFF" transform="translate(528,316)"/>
<path d="M0 0 C2 1 2 1 2 1 Z " fill="#FFFFFF" transform="translate(523,316)"/>
<path d="M0 0 C2 1 2 1 2 1 Z " fill="#FFFFFF" transform="translate(499,316)"/>
<path d="M0 0 C2 1 2 1 2 1 Z " fill="#FFFFFF" transform="translate(443,316)"/>
<path d="M0 0 C2 1 2 1 2 1 Z " fill="#FFFFFF" transform="translate(435,316)"/>
<path d="M0 0 C2 1 2 1 2 1 Z " fill="#FFFFFF" transform="translate(288,316)"/>
<path d="" fill="#FFFFFF" transform="translate(0,0)"/>
<path d="" fill="#FF7FFF" transform="translate(0,0)"/>
<path d="" fill="#FFD4D4" transform="translate(0,0)"/>
<path d="M0 0 C2 1 2 1 2 1 Z " fill="#FFFFFF" transform="translate(251,257)"/>
<path d="" fill="#FFFFFF" transform="translate(0,0)"/>
<path d="M0 0 C2 1 2 1 2 1 Z " fill="#FFFFFF" transform="translate(468,228)"/>
<path d="M0 0 C2 1 2 1 2 1 Z " fill="#FFB4DF" transform="translate(576,227)"/>
<path d="" fill="#FFFFFF" transform="translate(0,0)"/>
<path d="" fill="#FFFFFF" transform="translate(0,0)"/>
<path d="M0 0 C2 1 2 1 2 1 Z " fill="#FFFFFF" transform="translate(566,181)"/>
<path d="" fill="#FFBFFF" transform="translate(0,0)"/>
<path d="M0 0 C2 1 2 1 2 1 Z " fill="#FFBFFF" transform="translate(842,180)"/>
<path d="M0 0 C2 1 2 1 2 1 Z " fill="#FFBFFF" transform="translate(929,179)"/>
<path d="M0 0 C2 1 2 1 2 1 Z " fill="#FFBFFF" transform="translate(919,179)"/>
<path d="" fill="#FFFFFF" transform="translate(0,0)"/>
<path d="" fill="#FFBFFF" transform="translate(0,0)"/>
<path d="" fill="#FFBFFF" transform="translate(0,0)"/>
<path d="" fill="#FF94FF" transform="translate(0,0)"/>
<path d="" fill="#FFD4FF" transform="translate(0,0)"/>
<path d="" fill="#FFBFFF" transform="translate(0,0)"/>
<path d="M0 0 C2 1 2 1 2 1 Z " fill="#FFBFFF" transform="translate(565,159)"/>
<path d="M0 0 C2 1 2 1 2 1 Z " fill="#FFFFFF" transform="translate(562,159)"/>
<path d="M0 0 C2 1 2 1 2 1 Z " fill="#FFBFFF" transform="translate(470,159)"/>
<path d="M0 0 C2 1 2 1 2 1 Z " fill="#FFFFFF" transform="translate(443,159)"/>
<path d="" fill="#FFFFFF" transform="translate(0,0)"/>
<path d="" fill="#FFFFFF" transform="translate(0,0)"/>
<path d="M0 0 C2 1 2 1 2 1 Z " fill="#FFFFFF" transform="translate(548,138)"/>
<path d="M0 0 C2 1 2 1 2 1 Z " fill="#FF94FF" transform="translate(470,137)"/>
<path d="" fill="#FFE5E5" transform="translate(0,0)"/>
<path d="" fill="#FFBFFF" transform="translate(0,0)"/>
<path d="M0 0 C2 1 2 1 2 1 Z " fill="#FFFFFF" transform="translate(883,98)"/>
<path d="M0 0 C2 1 2 1 2 1 Z " fill="#FFA5E5" transform="translate(852,98)"/>
<path d="M0 0 C2 1 2 1 2 1 Z " fill="#FF9FDF" transform="translate(844,98)"/>
<path d="" fill="#FFBFFF" transform="translate(0,0)"/>
<path d="M0 0 C2 1 2 1 2 1 Z " fill="#FFFFFF" transform="translate(633,91)"/>
<path d="M0 0 C2 1 2 1 2 1 Z " fill="#FFB4B4" transform="translate(200,54)"/>
<path d="M0 0 C2 1 2 1 2 1 Z " fill="#FFBFFF" transform="translate(316,37)"/>
<path d="M0 0 C2 1 2 1 2 1 Z " fill="#FF7FFF" transform="translate(308,36)"/>
<path d="M0 0 C2 1 2 1 2 1 Z " fill="#FF94D4" transform="translate(936,29)"/>
<path d="M0 0 C2 1 2 1 2 1 Z " fill="#FF94D4" transform="translate(933,29)"/>
<path d="M0 0 C2 1 2 1 2 1 Z " fill="#FFE5E5" transform="translate(928,28)"/>
<path d="M0 0 C2 1 2 1 2 1 Z " fill="#FFBFFF" transform="translate(915,28)"/>
<path d="M0 0 C2 1 2 1 2 1 Z " fill="#FFFFFF" transform="translate(912,28)"/>
<path d="M0 0 C2 1 2 1 2 1 Z " fill="#FFBFFF" transform="translate(881,28)"/>
<path d="M0 0 C2 1 2 1 2 1 Z " fill="#FFFFFF" transform="translate(872,28)"/>
<path d="M0 0 C2 1 2 1 2 1 Z " fill="#FFFFFF" transform="translate(820,28)"/>
<path d="M0 0 C2 1 2 1 2 1 Z " fill="#FFFFFF" transform="translate(796,28)"/>
<path d="M0 0 C2 1 2 1 2 1 Z " fill="#FF94D4" transform="translate(220,28)"/>
<path d="M0 0 C2 1 2 1 2 1 Z " fill="#FFBFFF" transform="translate(259,20)"/>
<path d="M0 0 C2 1 2 1 2 1 Z " fill="#FFBFFF" transform="translate(256,20)"/>
<path d="M0 0 C2 1 2 1 2 1 Z " fill="#FFFFFF" transform="translate(252,2)"/>
<path d="" fill="#FFFFFF" transform="translate(0,0)"/>
<path d="" fill="#FF7FFF" transform="translate(0,0)"/>
<path d="" fill="#FFFFFF" transform="translate(0,0)"/>
<path d="" fill="#FFFFFF" transform="translate(0,0)"/>
<path d="" fill="#FFFFFF" transform="translate(0,0)"/>
<path d="" fill="#FFFFFF" transform="translate(0,0)"/>
<path d="" fill="#FF7FFF" transform="translate(0,0)"/>
<path d="" fill="#FFFFFF" transform="translate(0,0)"/>
<path d="" fill="#FFFFFF" transform="translate(0,0)"/>
<path d="" fill="#FFFFFF" transform="translate(0,0)"/>
<path d="" fill="#FFFFFF" transform="translate(0,0)"/>
<path d="" fill="#FFFFFF" transform="translate(0,0)"/>
<path d="" fill="#FFFFFF" transform="translate(0,0)"/>
<path d="" fill="#FFFFFF" transform="translate(0,0)"/>
<path d="" fill="#FFFFFF" transform="translate(0,0)"/>
<path d="" fill="#FFFFFF" transform="translate(0,0)"/>
<path d="" fill="#FFFFFF" transform="translate(0,0)"/>
<path d="" fill="#FFFFFF" transform="translate(0,0)"/>
<path d="" fill="#FFFFFF" transform="translate(0,0)"/>
<path d="" fill="#FFFFFF" transform="translate(0,0)"/>
<path d="" fill="#FF7FFF" transform="translate(0,0)"/>
<path d="" fill="#FFAAAA" transform="translate(0,0)"/>
<path d="" fill="#FFFFFF" transform="translate(0,0)"/>
<path d="" fill="#FF7FFF" transform="translate(0,0)"/>
<path d="" fill="#FFFFFF" transform="translate(0,0)"/>
<path d="" fill="#FFFFFF" transform="translate(0,0)"/>
<path d="" fill="#FFFFFF" transform="translate(0,0)"/>
<path d="" fill="#FFFFFF" transform="translate(0,0)"/>
<path d="" fill="#FFFFFF" transform="translate(0,0)"/>
<path d="" fill="#FFFFFF" transform="translate(0,0)"/>
<path d="" fill="#FFFFFF" transform="translate(0,0)"/>
<path d="" fill="#FFFFFF" transform="translate(0,0)"/>
<path d="" fill="#FFFFFF" transform="translate(0,0)"/>
<path d="" fill="#FFAAAA" transform="translate(0,0)"/>
<path d="" fill="#FFFFFF" transform="translate(0,0)"/>
<path d="" fill="#FFAAAA" transform="translate(0,0)"/>
<path d="" fill="#FFFFFF" transform="translate(0,0)"/>
<path d="" fill="#FFFFFF" transform="translate(0,0)"/>
<path d="" fill="#FFFFFF" transform="translate(0,0)"/>
<path d="" fill="#FFFFFF" transform="translate(0,0)"/>
<path d="" fill="#FFFFFF" transform="translate(0,0)"/>
<path d="" fill="#FFFFFF" transform="translate(0,0)"/>
<path d="" fill="#FFFFFF" transform="translate(0,0)"/>
<path d="" fill="#FFFFFF" transform="translate(0,0)"/>
<path d="" fill="#FF7FFF" transform="translate(0,0)"/>
<path d="" fill="#FFFFFF" transform="translate(0,0)"/>
<path d="" fill="#FFFFFF" transform="translate(0,0)"/>
<path d="" fill="#FFFFFF" transform="translate(0,0)"/>
<path d="" fill="#FFFFFF" transform="translate(0,0)"/>
<path d="" fill="#FFFFFF" transform="translate(0,0)"/>
<path d="" fill="#FFFFFF" transform="translate(0,0)"/>
<path d="" fill="#FFFFFF" transform="translate(0,0)"/>
<path d="" fill="#FFFFFF" transform="translate(0,0)"/>
<path d="" fill="#FFFFFF" transform="translate(0,0)"/>
<path d="" fill="#FFFFFF" transform="translate(0,0)"/>
<path d="" fill="#FFFFFF" transform="translate(0,0)"/>
<path d="" fill="#FFFFFF" transform="translate(0,0)"/>
<path d="" fill="#FFFFFF" transform="translate(0,0)"/>
<path d="" fill="#FFFFFF" transform="translate(0,0)"/>
<path d="" fill="#FF7FFF" transform="translate(0,0)"/>
<path d="" fill="#FFAAAA" transform="translate(0,0)"/>
<path d="" fill="#FFFFFF" transform="translate(0,0)"/>
<path d="" fill="#FFFFFF" transform="translate(0,0)"/>
<path d="" fill="#FFFFFF" transform="translate(0,0)"/>
<path d="" fill="#FF7FFF" transform="translate(0,0)"/>
<path d="" fill="#FFFFFF" transform="translate(0,0)"/>
<path d="" fill="#FFFFFF" transform="translate(0,0)"/>
<path d="" fill="#FFFFFF" transform="translate(0,0)"/>
<path d="" fill="#FFFFFF" transform="translate(0,0)"/>
<path d="" fill="#FFFFFF" transform="translate(0,0)"/>
<path d="" fill="#FFFFFF" transform="translate(0,0)"/>
<path d="" fill="#FFFFFF" transform="translate(0,0)"/>
<path d="" fill="#FFFFFF" transform="translate(0,0)"/>
<path d="" fill="#FFFFFF" transform="translate(0,0)"/>
<path d="" fill="#FF7FFF" transform="translate(0,0)"/>
<path d="" fill="#FFFFFF" transform="translate(0,0)"/>
<path d="" fill="#FFFFFF" transform="translate(0,0)"/>
<path d="" fill="#FFFFFF" transform="translate(0,0)"/>
<path d="" fill="#FFFFFF" transform="translate(0,0)"/>
<path d="" fill="#FFFFFF" transform="translate(0,0)"/>
<path d="" fill="#FFFFFF" transform="translate(0,0)"/>
<path d="" fill="#FFFFFF" transform="translate(0,0)"/>
<path d="" fill="#FFFFFF" transform="translate(0,0)"/>
<path d="" fill="#FFFFFF" transform="translate(0,0)"/>
<path d="" fill="#FFFFFF" transform="translate(0,0)"/>
<path d="" fill="#FFFFFF" transform="translate(0,0)"/>
<path d="" fill="#FFFFFF" transform="translate(0,0)"/>
<path d="" fill="#FFFFFF" transform="translate(0,0)"/>
<path d="" fill="#FFFFFF" transform="translate(0,0)"/>
<path d="" fill="#FFFFFF" transform="translate(0,0)"/>
<path d="" fill="#FFFFFF" transform="translate(0,0)"/>
<path d="" fill="#FFFFFF" transform="translate(0,0)"/>
<path d="" fill="#FF7FFF" transform="translate(0,0)"/>
<path d="" fill="#FFFFFF" transform="translate(0,0)"/>
<path d="" fill="#FFFFFF" transform="translate(0,0)"/>
<path d="" fill="#FFFFFF" transform="translate(0,0)"/>
<path d="" fill="#FF7FFF" transform="translate(0,0)"/>
<path d="" fill="#FFFFFF" transform="translate(0,0)"/>
<path d="" fill="#FF7FFF" transform="translate(0,0)"/>
<path d="" fill="#FF7FFF" transform="translate(0,0)"/>
<path d="" fill="#FF7FFF" transform="translate(0,0)"/>
<path d="" fill="#FFFFFF" transform="translate(0,0)"/>
<path d="" fill="#FF7FFF" transform="translate(0,0)"/>
<path d="" fill="#FFFFFF" transform="translate(0,0)"/>
<path d="" fill="#FFFFFF" transform="translate(0,0)"/>
<path d="" fill="#FFFFFF" transform="translate(0,0)"/>
<path d="" fill="#FFFFFF" transform="translate(0,0)"/>
<path d="" fill="#FFFFFF" transform="translate(0,0)"/>
<path d="" fill="#FFFFFF" transform="translate(0,0)"/>
<path d="" fill="#FFFFFF" transform="translate(0,0)"/>
<path d="" fill="#FFFFFF" transform="translate(0,0)"/>
<path d="" fill="#FFFFFF" transform="translate(0,0)"/>
<path d="" fill="#FFFFFF" transform="translate(0,0)"/>
<path d="" fill="#FFFFFF" transform="translate(0,0)"/>
<path d="" fill="#FFFFFF" transform="translate(0,0)"/>
<path d="" fill="#FFFFFF" transform="translate(0,0)"/>
<path d="" fill="#FFFFFF" transform="translate(0,0)"/>
<path d="" fill="#FFFFFF" transform="translate(0,0)"/>
<path d="" fill="#FFFFFF" transform="translate(0,0)"/>
<path d="" fill="#FFFFFF" transform="translate(0,0)"/>
<path d="" fill="#FFFFFF" transform="translate(0,0)"/>
<path d="" fill="#FFFFFF" transform="translate(0,0)"/>
<path d="" fill="#FF7FFF" transform="translate(0,0)"/>
<path d="" fill="#FFFFFF" transform="translate(0,0)"/>
<path d="" fill="#FF7FFF" transform="translate(0,0)"/>
<path d="" fill="#FFBFBF" transform="translate(0,0)"/>
<path d="" fill="#FF7FFF" transform="translate(0,0)"/>
<path d="" fill="#FFAAD4" transform="translate(0,0)"/>
<path d="" fill="#FFFFFF" transform="translate(0,0)"/>
<path d="" fill="#FFFFFF" transform="translate(0,0)"/>
<path d="" fill="#FFCCCC" transform="translate(0,0)"/>
<path d="" fill="#FFFFFF" transform="translate(0,0)"/>
<path d="" fill="#FFFFFF" transform="translate(0,0)"/>
<path d="" fill="#FFFFFF" transform="translate(0,0)"/>
<path d="" fill="#FF7FFF" transform="translate(0,0)"/>
<path d="" fill="#FF7FFF" transform="translate(0,0)"/>
<path d="" fill="#FFFFFF" transform="translate(0,0)"/>
<path d="" fill="#FF7FFF" transform="translate(0,0)"/>
<path d="" fill="#FFFFFF" transform="translate(0,0)"/>
<path d="" fill="#FFFFFF" transform="translate(0,0)"/>
<path d="" fill="#FFFFFF" transform="translate(0,0)"/>
<path d="" fill="#FFFFFF" transform="translate(0,0)"/>
<path d="" fill="#FFFFFF" transform="translate(0,0)"/>
<path d="" fill="#FFFFFF" transform="translate(0,0)"/>
<path d="" fill="#FF7FFF" transform="translate(0,0)"/>
<path d="" fill="#FFFFFF" transform="translate(0,0)"/>
<path d="" fill="#FFFFFF" transform="translate(0,0)"/>
<path d="" fill="#FF7FFF" transform="translate(0,0)"/>
<path d="" fill="#FFAAFF" transform="translate(0,0)"/>
<path d="" fill="#FF7FFF" transform="translate(0,0)"/>
<path d="" fill="#FF7FFF" transform="translate(0,0)"/>
<path d="" fill="#FF7FFF" transform="translate(0,0)"/>
<path d="" fill="#FFFFFF" transform="translate(0,0)"/>
<path d="" fill="#FFFFFF" transform="translate(0,0)"/>
<path d="" fill="#FFFFFF" transform="translate(0,0)"/>
<path d="" fill="#FFFFFF" transform="translate(0,0)"/>
<path d="" fill="#FFFFFF" transform="translate(0,0)"/>
<path d="" fill="#FFFFFF" transform="translate(0,0)"/>
<path d="" fill="#FFFFFF" transform="translate(0,0)"/>
<path d="" fill="#FFFFFF" transform="translate(0,0)"/>
<path d="" fill="#FFFFFF" transform="translate(0,0)"/>
<path d="" fill="#FF7FFF" transform="translate(0,0)"/>
<path d="" fill="#FFAAAA" transform="translate(0,0)"/>
<path d="" fill="#FFFFFF" transform="translate(0,0)"/>
<path d="" fill="#FFFFFF" transform="translate(0,0)"/>
<path d="" fill="#FFFFFF" transform="translate(0,0)"/>
<path d="" fill="#FFFFFF" transform="translate(0,0)"/>
<path d="" fill="#FFFFFF" transform="translate(0,0)"/>
<path d="" fill="#FFFFFF" transform="translate(0,0)"/>
<path d="" fill="#FFFFFF" transform="translate(0,0)"/>
<path d="" fill="#FFAAFF" transform="translate(0,0)"/>
<path d="" fill="#FF7FFF" transform="translate(0,0)"/>
<path d="" fill="#FFFFFF" transform="translate(0,0)"/>
<path d="" fill="#FFFFFF" transform="translate(0,0)"/>
<path d="" fill="#FFFFFF" transform="translate(0,0)"/>
<path d="" fill="#FFFFFF" transform="translate(0,0)"/>
<path d="" fill="#FFFFFF" transform="translate(0,0)"/>
<path d="" fill="#FFFFFF" transform="translate(0,0)"/>
<path d="" fill="#FFFFFF" transform="translate(0,0)"/>
<path d="" fill="#FFFFFF" transform="translate(0,0)"/>
<path d="" fill="#FF7FFF" transform="translate(0,0)"/>
<path d="" fill="#FFFFFF" transform="translate(0,0)"/>
<path d="" fill="#FFFFFF" transform="translate(0,0)"/>
<path d="" fill="#FFFFFF" transform="translate(0,0)"/>
<path d="" fill="#FFFFFF" transform="translate(0,0)"/>
<path d="" fill="#FFFFFF" transform="translate(0,0)"/>
<path d="" fill="#FFFFFF" transform="translate(0,0)"/>
<path d="" fill="#FFFFFF" transform="translate(0,0)"/>
<path d="" fill="#FF7FFF" transform="translate(0,0)"/>
<path d="" fill="#FF7FFF" transform="translate(0,0)"/>
<path d="" fill="#FFFFFF" transform="translate(0,0)"/>
<path d="" fill="#FFFFFF" transform="translate(0,0)"/>
<path d="" fill="#FFFFFF" transform="translate(0,0)"/>
<path d="" fill="#FFFFFF" transform="translate(0,0)"/>
<path d="" fill="#FF7FFF" transform="translate(0,0)"/>
<path d="" fill="#FFFFFF" transform="translate(0,0)"/>
<path d="" fill="#FFFFFF" transform="translate(0,0)"/>
<path d="" fill="#FF7FFF" transform="translate(0,0)"/>
<path d="" fill="#FFFFFF" transform="translate(0,0)"/>
<path d="" fill="#FFFFFF" transform="translate(0,0)"/>
<path d="" fill="#FF7FFF" transform="translate(0,0)"/>
<path d="" fill="#FFFFFF" transform="translate(0,0)"/>
<path d="" fill="#FFFFFF" transform="translate(0,0)"/>
<path d="" fill="#FFFFFF" transform="translate(0,0)"/>
<path d="" fill="#FFAAFF" transform="translate(0,0)"/>
<path d="" fill="#FFFFFF" transform="translate(0,0)"/>
<path d="" fill="#FFFFFF" transform="translate(0,0)"/>
<path d="" fill="#FF7FFF" transform="translate(0,0)"/>
<path d="" fill="#FF7FFF" transform="translate(0,0)"/>
<path d="" fill="#FF7FFF" transform="translate(0,0)"/>
<path d="" fill="#FFFFFF" transform="translate(0,0)"/>
<path d="" fill="#FF7FFF" transform="translate(0,0)"/>
<path d="" fill="#FFFFFF" transform="translate(0,0)"/>
<path d="" fill="#FFFFFF" transform="translate(0,0)"/>
<path d="" fill="#FFFFFF" transform="translate(0,0)"/>
<path d="" fill="#FFAAFF" transform="translate(0,0)"/>
<path d="" fill="#FFAAAA" transform="translate(0,0)"/>
<path d="" fill="#FF7FFF" transform="translate(0,0)"/>
<path d="" fill="#FF7FFF" transform="translate(0,0)"/>
<path d="" fill="#FFFFFF" transform="translate(0,0)"/>
<path d="" fill="#FFFFFF" transform="translate(0,0)"/>
<path d="" fill="#FFFFFF" transform="translate(0,0)"/>
<path d="" fill="#FF7FFF" transform="translate(0,0)"/>
<path d="" fill="#FFFFFF" transform="translate(0,0)"/>
<path d="" fill="#FFFFFF" transform="translate(0,0)"/>
<path d="" fill="#FFFFFF" transform="translate(0,0)"/>
<path d="" fill="#FF7FFF" transform="translate(0,0)"/>
<path d="" fill="#FFFFFF" transform="translate(0,0)"/>
<path d="" fill="#FFFFFF" transform="translate(0,0)"/>
<path d="" fill="#FFFFFF" transform="translate(0,0)"/>
<path d="" fill="#FF7FFF" transform="translate(0,0)"/>
<path d="" fill="#FFFFFF" transform="translate(0,0)"/>
<path d="" fill="#FFFFFF" transform="translate(0,0)"/>
<path d="" fill="#FFFFFF" transform="translate(0,0)"/>
<path d="" fill="#FFFFFF" transform="translate(0,0)"/>
<path d="" fill="#FFFFFF" transform="translate(0,0)"/>
<path d="" fill="#FF7FFF" transform="translate(0,0)"/>
<path d="" fill="#FFFFFF" transform="translate(0,0)"/>
<path d="" fill="#FFFFFF" transform="translate(0,0)"/>
<path d="" fill="#FFFFFF" transform="translate(0,0)"/>
<path d="" fill="#FFFFFF" transform="translate(0,0)"/>
<path d="" fill="#FFFFFF" transform="translate(0,0)"/>
<path d="" fill="#FF7FFF" transform="translate(0,0)"/>
<path d="" fill="#FFFFFF" transform="translate(0,0)"/>
<path d="" fill="#FFAAFF" transform="translate(0,0)"/>
<path d="" fill="#FFFFFF" transform="translate(0,0)"/>
<path d="" fill="#FF7FFF" transform="translate(0,0)"/>
<path d="" fill="#FFFFFF" transform="translate(0,0)"/>
<path d="" fill="#FF7FFF" transform="translate(0,0)"/>
<path d="" fill="#FFFFFF" transform="translate(0,0)"/>
<path d="" fill="#FFFFFF" transform="translate(0,0)"/>
<path d="" fill="#FFAAFF" transform="translate(0,0)"/>
<path d="" fill="#FFFFFF" transform="translate(0,0)"/>
<path d="" fill="#FFFFFF" transform="translate(0,0)"/>
<path d="" fill="#FFFFFF" transform="translate(0,0)"/>
<path d="" fill="#FFFFFF" transform="translate(0,0)"/>
<path d="" fill="#FFAAAA" transform="translate(0,0)"/>
<path d="" fill="#FFFFFF" transform="translate(0,0)"/>
<path d="" fill="#FF7FFF" transform="translate(0,0)"/>
<path d="" fill="#FFFFFF" transform="translate(0,0)"/>
<path d="" fill="#FFFFFF" transform="translate(0,0)"/>
<path d="" fill="#FFFFFF" transform="translate(0,0)"/>
<path d="" fill="#FFFFFF" transform="translate(0,0)"/>
<path d="" fill="#FF7FFF" transform="translate(0,0)"/>
<path d="" fill="#FFFFFF" transform="translate(0,0)"/>
<path d="" fill="#FFFFFF" transform="translate(0,0)"/>
<path d="" fill="#FF7FFF" transform="translate(0,0)"/>
<path d="" fill="#FF7FFF" transform="translate(0,0)"/>
<path d="" fill="#FFFFFF" transform="translate(0,0)"/>
<path d="" fill="#FFFFFF" transform="translate(0,0)"/>
<path d="" fill="#FFFFFF" transform="translate(0,0)"/>
<path d="" fill="#FFFFFF" transform="translate(0,0)"/>
<path d="" fill="#FFFFFF" transform="translate(0,0)"/>
<path d="" fill="#FFFFFF" transform="translate(0,0)"/>
<path d="" fill="#FFFFFF" transform="translate(0,0)"/>
<path d="" fill="#FFAAFF" transform="translate(0,0)"/>
<path d="" fill="#FFFFFF" transform="translate(0,0)"/>
<path d="" fill="#FFFFFF" transform="translate(0,0)"/>
<path d="" fill="#FF7FFF" transform="translate(0,0)"/>
<path d="" fill="#FF7FFF" transform="translate(0,0)"/>
<path d="" fill="#FFBFBF" transform="translate(0,0)"/>
<path d="" fill="#FFFFFF" transform="translate(0,0)"/>
<path d="" fill="#FFFFFF" transform="translate(0,0)"/>
<path d="" fill="#FF7FFF" transform="translate(0,0)"/>
<path d="" fill="#FF7FFF" transform="translate(0,0)"/>
<path d="" fill="#FFAAAA" transform="translate(0,0)"/>
<path d="" fill="#FFFFFF" transform="translate(0,0)"/>
<path d="" fill="#FFFFFF" transform="translate(0,0)"/>
<path d="" fill="#FF7FFF" transform="translate(0,0)"/>
<path d="" fill="#FFFFFF" transform="translate(0,0)"/>
<path d="" fill="#FFAAAA" transform="translate(0,0)"/>
<path d="" fill="#FFFFFF" transform="translate(0,0)"/>
<path d="" fill="#FFFFFF" transform="translate(0,0)"/>
<path d="" fill="#FF7FFF" transform="translate(0,0)"/>
<path d="" fill="#FFFFFF" transform="translate(0,0)"/>
<path d="" fill="#FFFFFF" transform="translate(0,0)"/>
<path d="" fill="#FFFFFF" transform="translate(0,0)"/>
<path d="" fill="#FF7FFF" transform="translate(0,0)"/>
<path d="" fill="#FFAAAA" transform="translate(0,0)"/>
<path d="" fill="#FFFFFF" transform="translate(0,0)"/>
<path d="" fill="#FFFFFF" transform="translate(0,0)"/>
<path d="" fill="#FFFFFF" transform="translate(0,0)"/>
<path d="" fill="#FFFFFF" transform="translate(0,0)"/>
<path d="" fill="#FFFFFF" transform="translate(0,0)"/>
<path d="" fill="#FFFFFF" transform="translate(0,0)"/>
<path d="" fill="#FFFFFF" transform="translate(0,0)"/>
<path d="" fill="#FFFFFF" transform="translate(0,0)"/>
<path d="" fill="#FFFFFF" transform="translate(0,0)"/>
<path d="" fill="#FF7FFF" transform="translate(0,0)"/>
<path d="" fill="#FF7FFF" transform="translate(0,0)"/>
<path d="" fill="#FFFFFF" transform="translate(0,0)"/>
<path d="" fill="#FFBFBF" transform="translate(0,0)"/>
<path d="" fill="#FF7FFF" transform="translate(0,0)"/>
<path d="" fill="#FFFFFF" transform="translate(0,0)"/>
<path d="" fill="#FFAAAA" transform="translate(0,0)"/>
<path d="" fill="#FFFFFF" transform="translate(0,0)"/>
<path d="" fill="#FFFFFF" transform="translate(0,0)"/>
<path d="" fill="#FF7FFF" transform="translate(0,0)"/>
<path d="" fill="#FFFFFF" transform="translate(0,0)"/>
<path d="" fill="#FFAAAA" transform="translate(0,0)"/>
<path d="" fill="#FFFFFF" transform="translate(0,0)"/>
<path d="" fill="#FFFFFF" transform="translate(0,0)"/>
<path d="" fill="#FFFFFF" transform="translate(0,0)"/>
<path d="" fill="#FFCCCC" transform="translate(0,0)"/>
<path d="" fill="#FFFFFF" transform="translate(0,0)"/>
<path d="" fill="#FFFFFF" transform="translate(0,0)"/>
<path d="" fill="#FFFFFF" transform="translate(0,0)"/>
<path d="" fill="#FFAAAA" transform="translate(0,0)"/>
<path d="" fill="#FFCCCC" transform="translate(0,0)"/>
<path d="" fill="#FFFFFF" transform="translate(0,0)"/>
<path d="" fill="#FFFFFF" transform="translate(0,0)"/>
<path d="" fill="#FFFFFF" transform="translate(0,0)"/>
<path d="" fill="#FF7FFF" transform="translate(0,0)"/>
<path d="" fill="#FFFFFF" transform="translate(0,0)"/>
<path d="" fill="#FFFFFF" transform="translate(0,0)"/>
<path d="" fill="#FFFFFF" transform="translate(0,0)"/>
<path d="" fill="#FFFFFF" transform="translate(0,0)"/>
<path d="" fill="#FFFFFF" transform="translate(0,0)"/>
<path d="" fill="#FFFFFF" transform="translate(0,0)"/>
<path d="" fill="#FFFFFF" transform="translate(0,0)"/>
<path d="" fill="#FFFFFF" transform="translate(0,0)"/>
<path d="" fill="#FFFFFF" transform="translate(0,0)"/>
<path d="" fill="#FFFFFF" transform="translate(0,0)"/>
<path d="" fill="#FFFFFF" transform="translate(0,0)"/>
<path d="" fill="#FFFFFF" transform="translate(0,0)"/>
<path d="" fill="#FFFFFF" transform="translate(0,0)"/>
<path d="" fill="#FF7FFF" transform="translate(0,0)"/>
<path d="" fill="#FFFFFF" transform="translate(0,0)"/>
<path d="" fill="#FF7FFF" transform="translate(0,0)"/>
<path d="" fill="#FF7FFF" transform="translate(0,0)"/>
<path d="" fill="#FFFFFF" transform="translate(0,0)"/>
<path d="" fill="#FF7FFF" transform="translate(0,0)"/>
<path d="" fill="#FFBFBF" transform="translate(0,0)"/>
<path d="" fill="#FF7FFF" transform="translate(0,0)"/>
<path d="" fill="#FFFFFF" transform="translate(0,0)"/>
<path d="" fill="#FFFFFF" transform="translate(0,0)"/>
<path d="" fill="#FFFFFF" transform="translate(0,0)"/>
<path d="" fill="#FFFFFF" transform="translate(0,0)"/>
<path d="" fill="#FFFFFF" transform="translate(0,0)"/>
<path d="" fill="#FFFFFF" transform="translate(0,0)"/>
<path d="" fill="#FF7FFF" transform="translate(0,0)"/>
<path d="" fill="#FFFFFF" transform="translate(0,0)"/>
<path d="" fill="#FFFFFF" transform="translate(0,0)"/>
<path d="" fill="#FFFFFF" transform="translate(0,0)"/>
<path d="" fill="#FFFFFF" transform="translate(0,0)"/>
<path d="" fill="#FFFFFF" transform="translate(0,0)"/>
<path d="" fill="#FFFFFF" transform="translate(0,0)"/>
<path d="" fill="#FFFFFF" transform="translate(0,0)"/>
<path d="" fill="#FFFFFF" transform="translate(0,0)"/>
<path d="" fill="#FFFFFF" transform="translate(0,0)"/>
<path d="" fill="#FFFFFF" transform="translate(0,0)"/>
<path d="" fill="#FFFFFF" transform="translate(0,0)"/>
<path d="" fill="#FF7FFF" transform="translate(0,0)"/>
<path d="" fill="#FFFFFF" transform="translate(0,0)"/>
</svg>
